<svg width="330" height="359" viewBox="0 0 330 359" fill="none" xmlns="http://www.w3.org/2000/svg">
<g clip-path="url(#clip0_415_39)">
<path d="M299.77 23.0852C301.115 28.2665 301.115 34.0147 301.299 39.1038C301.721 50.8375 302.051 62.5976 302.301 74.3446C302.815 97.8384 302.934 121.359 302.802 144.853C302.776 148.597 302.763 152.354 302.723 156.112C303.541 157.931 304.411 159.724 305.32 161.491C306.045 162.875 306.784 164.246 307.548 165.617C307.812 152.354 307.917 139.065 307.917 125.802C307.917 101.767 307.548 77.7328 306.836 53.7116C306.652 47.6997 306.467 41.6878 306.243 35.6759C306.085 31.457 305.848 27.1854 304.938 23.0588C303.211 23.0588 301.484 23.0588 299.77 23.0852Z" fill="black"/>
<path d="M195.197 319.659C195.514 319.659 195.83 319.699 196.147 319.712C200.471 319.949 205.204 320.806 209.502 319.962C211.321 319.606 213.074 318.868 214.221 317.339C215.382 315.809 215.817 313.819 216.041 311.96C216.634 307.055 216.674 302.006 216.95 297.075C217.53 286.409 218.15 275.743 219.047 265.117C219.258 262.546 219.521 259.988 219.89 257.431C219.89 257.325 219.943 257.259 219.983 257.18C219.93 256.851 219.983 256.481 220.141 256.112C220.813 254.543 219.64 252.671 218.44 251.722C217.333 250.839 215.948 250.417 214.525 250.206C214.591 250.074 214.643 249.942 214.696 249.797C214.999 248.927 215.157 247.978 215.144 247.042C215.144 246.765 215.118 246.475 215.078 246.171C218.625 246.831 221.973 248.4 223.542 251.933C224.452 253.99 224.426 256.033 223.516 258.077C223.344 258.433 223.134 258.683 222.896 258.841C222.962 264.313 222.606 269.771 222.329 275.229C222.039 281.043 221.736 286.844 221.367 292.632C220.998 298.433 220.695 304.247 220.273 310.035C219.956 314.399 219.099 318.96 215.342 321.689C211.809 324.26 207.115 324.168 202.949 323.838C199.363 323.561 195.777 323.298 192.191 323.087C193.193 321.94 194.209 320.78 195.211 319.633L195.197 319.659ZM127.539 279.514C127.75 273.818 128.158 268.136 128.752 262.467C129.029 259.619 129.385 256.798 129.767 253.963C130.057 251.841 130.4 249.731 131.323 247.78C132.852 244.523 135.739 243.297 138.916 242.902C139.035 243.376 139.154 243.851 139.272 244.299C139.457 244.998 139.628 245.684 139.813 246.382C138.284 246.409 136.741 246.646 135.594 247.714C134.144 249.059 133.722 251.274 133.419 253.146C133.01 255.624 132.746 258.129 132.47 260.608C131.889 265.763 131.454 270.931 131.164 276.099C130.597 286.435 130.637 296.824 131.283 307.174C131.52 311.116 131.56 316.323 135.647 318.354C139.378 320.226 144.388 319.329 148.395 319.198C152.245 319.066 156.095 319 159.944 318.947C160.01 319.118 160.102 319.29 160.195 319.448C160.511 319.962 160.841 320.45 161.17 320.964C161.46 321.412 161.75 321.848 162.04 322.296C158.23 322.296 154.42 322.375 150.61 322.48C145.89 322.625 140.657 323.443 136.055 322.085C131.679 320.78 129.266 317.233 128.528 312.856C127.631 307.556 127.605 301.992 127.473 296.627C127.302 290.931 127.328 285.236 127.552 279.54L127.539 279.514Z" fill="#BFE7C2"/>
<path d="M-0.000117788 220.845C-0.0264851 221.465 0.158074 221.966 0.461298 222.335C0.566767 226.646 3.94179 230.614 7.76505 232.421C13.2363 234.991 19.6303 234.846 25.5366 235.255C49.0694 236.877 72.6154 238.512 96.1351 240.08C107.855 240.871 119.576 241.649 131.283 242.44C133.3 242.585 135.317 242.704 137.334 242.836C137.268 242.572 137.215 242.309 137.163 242.045C136.925 240.871 136.728 239.685 136.569 238.485C134.064 238.301 131.56 238.116 129.068 237.931C106.59 236.297 84.1248 234.675 61.6335 233.093C50.3482 232.289 39.0499 231.498 27.7647 230.693C22.7021 230.337 17.2968 230.456 12.3793 229.098C8.46379 228.03 5.14151 225.314 4.8251 221.214C4.8251 221.095 4.86465 220.977 4.87783 220.845C5.04922 215.123 5.2206 209.414 5.40517 203.693C6.14345 180.08 6.89493 156.454 7.59366 132.829L9.70305 61.9648C10.059 50.2178 10.4809 38.4709 10.7182 26.6976C10.7446 25.722 10.7314 24.6936 10.7182 23.6521C9.22845 23.6521 7.7255 23.6521 6.23574 23.6521C6.01162 29.2157 5.81387 34.7926 5.64248 40.3562C5.26016 52.3273 4.89101 64.2852 4.50869 76.2562C3.74404 100.409 2.96621 124.562 2.22792 148.702C1.48964 172.737 0.76454 196.784 0.0262551 220.819L-0.000117788 220.845Z" fill="black"/>
<path d="M232.599 89.9675C232.797 90.2444 233.061 90.508 233.364 90.7322C233.746 91.0222 234.115 91.0354 234.432 90.8772C235.157 90.5212 235.513 89.2556 234.616 88.5964C234.089 88.214 234.432 87.2252 234.735 86.8165C235.236 86.1441 236.198 85.8805 236.937 85.6036C238.413 85.0235 239.784 84.417 241.037 83.481C243.581 81.5693 245.638 79.0907 248.644 77.8382C249.435 77.5086 250.278 77.2581 251.122 77.0867C252.006 76.9153 252.889 76.8626 253.785 76.889C255.104 76.9681 256.396 77.2977 257.582 77.9173C260.179 79.2885 261.748 81.5297 262.566 84.2984C262.922 85.5113 264.543 85.1817 264.662 84.0215C264.886 81.6352 263.858 79.328 262.223 77.5482C261.26 76.4803 260.061 75.5969 258.808 75.0169C256.923 74.1203 254.893 73.7907 252.876 73.9094H252.836C250.793 74.0281 248.776 74.5818 246.903 75.4651C242.869 77.39 240.364 81.2661 236.212 83.0063C234.537 83.7051 232.823 84.7466 232.19 86.5528C231.729 87.8317 231.874 89.0314 232.599 89.9807V89.9675Z" fill="black"/>
<path d="M229.91 103.639C230.569 105.195 231.571 106.579 232.757 107.792C233.43 108.478 234.168 109.124 234.946 109.678C234.946 109.678 234.985 109.704 234.998 109.717C236.066 110.482 237.24 111.141 238.439 111.668C239.02 111.932 239.745 112.275 240.483 112.499C241.089 112.684 241.722 112.763 242.263 112.618C242.632 112.512 242.882 112.183 242.948 111.827C242.988 111.55 242.909 111.26 242.685 111.036C241.841 110.324 240.575 110.205 239.573 109.743C238.598 109.295 237.688 108.768 236.871 108.056C235.183 106.606 233.852 104.799 233.1 102.703C232.151 100.053 232.111 97.1923 232.85 94.516C233.034 93.8304 233.271 93.1448 233.575 92.4856C233.812 91.9187 234.115 91.3782 234.445 90.8508C234.563 90.6399 234.695 90.4289 234.84 90.2312C235.315 89.5588 234.392 88.6623 233.72 89.1105C233.324 89.361 232.955 89.6643 232.612 89.9543C228.855 93.2635 227.932 98.9985 229.923 103.626L229.91 103.639Z" fill="black"/>
<path d="M289.025 134.042C289.368 133.817 289.658 133.567 289.935 133.303C289.25 132.736 288.524 132.196 287.773 131.721C287.694 132.104 287.602 132.486 287.509 132.868C287.298 133.699 288.261 134.582 289.039 134.042H289.025Z" fill="black"/>
<path d="M278.637 101.57C278.637 101.57 278.768 101.662 278.834 101.688C278.861 100.422 278.887 99.17 278.874 97.9175C278.241 97.3243 277.635 96.6651 276.804 96.3882C276.554 96.2959 276.198 96.4409 276.066 96.6782C275.077 98.6295 277.134 100.62 278.623 101.57H278.637Z" fill="black"/>
<path d="M271.359 83.7843C271.543 84.1666 272.044 84.1403 272.321 83.9161C272.862 83.4547 273.231 82.8746 273.666 82.3472C273.099 81.6089 272.466 80.9234 271.807 80.251C271.135 81.3452 270.792 82.6505 271.346 83.7843H271.359Z" fill="black"/>
<path d="M244.794 78.3392C246.943 77.9569 249.039 77.2186 251.188 76.7967C251.689 76.678 252.19 76.6121 252.704 76.5462C253.073 76.5066 253.429 76.4671 253.798 76.4407C256.053 76.2957 258.36 76.5066 260.548 77.034C261.115 77.179 261.669 77.3372 262.223 77.535C261.26 76.4671 260.061 75.5838 258.808 75.0037C256.923 74.1072 254.893 73.7776 252.875 73.8962H252.836C249.672 74.3445 246.534 75.2278 244.451 77.7723C244.227 78.0492 244.451 78.4051 244.781 78.3392H244.794Z" fill="black"/>
<path d="M243.238 86.0387C243.304 85.8805 243.476 85.7355 243.594 85.6169L243.805 85.3795C243.95 85.2213 244.095 85.0763 244.227 84.9181C244.319 84.8258 244.425 84.7599 244.544 84.7203C244.662 84.6544 244.794 84.6281 244.926 84.6412C245.058 84.6412 245.19 84.6676 245.308 84.7203C245.427 84.7599 245.532 84.8258 245.625 84.9181C245.796 85.1027 245.928 85.3532 245.915 85.6169C245.915 85.7091 245.888 85.7882 245.875 85.8805C245.822 86.0519 245.743 86.197 245.625 86.3156C245.493 86.4738 245.361 86.6452 245.229 86.8166C245.163 86.8957 245.097 86.9748 245.031 87.0671C245.005 87.1066 244.965 87.1462 244.939 87.1857C244.926 87.1989 244.913 87.2253 244.899 87.2385C244.834 87.3308 244.741 87.3835 244.649 87.4494C244.57 87.489 244.491 87.5154 244.398 87.5549C244.267 87.5945 244.122 87.6076 243.99 87.5681C243.898 87.5681 243.805 87.5417 243.726 87.5022C243.594 87.4626 243.489 87.3967 243.397 87.2912C243.344 87.2253 243.291 87.1594 243.238 87.0803C243.199 87.0012 243.172 86.9221 243.133 86.8298C243.093 86.6979 243.08 86.5529 243.12 86.4211C243.12 86.2892 243.172 86.1574 243.238 86.0387Z" fill="black"/>
<path d="M246.6 81.5693C246.785 81.1474 247.194 81.0024 247.629 81.0683C248.657 81.2265 249.619 81.8989 250.331 82.6504C250.7 83.0327 251.004 83.4678 251.228 83.9556C251.346 84.2193 251.465 84.483 251.557 84.7598C251.597 84.8653 251.623 84.9708 251.65 85.0894C251.716 85.4058 251.65 85.6959 251.478 85.9464C251.228 86.3155 250.806 86.4342 250.41 86.2232C250.226 86.131 250.028 85.9991 249.936 85.8014C249.87 85.6695 249.817 85.5245 249.764 85.3795C249.764 85.3795 249.764 85.3795 249.751 85.3531C249.738 85.3135 249.712 85.274 249.685 85.2213C249.633 85.1158 249.58 85.0235 249.527 84.918C249.422 84.7335 249.29 84.5489 249.171 84.3775C249.118 84.2984 249.039 84.2061 248.987 84.127C248.987 84.127 248.987 84.127 248.987 84.1402C248.947 84.1006 248.921 84.0611 248.881 84.0215C248.749 83.8633 248.604 83.7183 248.446 83.5733C248.393 83.5205 248.327 83.4678 248.275 83.4282C248.275 83.4282 248.248 83.4019 248.235 83.4019C248.222 83.4019 248.209 83.3755 248.196 83.3623C248.196 83.3623 248.196 83.3623 248.222 83.3755C248.182 83.336 248.13 83.3096 248.077 83.2832C247.906 83.1646 247.721 83.0591 247.536 82.9668C247.339 82.8613 247.154 82.7427 246.956 82.6372C246.574 82.4394 246.442 81.9384 246.6 81.5561V81.5693Z" fill="black"/>
<path d="M248.274 83.4546C248.274 83.4546 248.327 83.4941 248.209 83.4019C248.209 83.4019 248.222 83.4019 248.235 83.415C248.235 83.415 248.261 83.4414 248.274 83.4414V83.4546Z" fill="black"/>
<path d="M249 84.1665C249.053 84.2324 249.092 84.3511 249 84.1665Z" fill="black"/>
<path d="M232.454 92.6176C232.85 92.3539 233.285 92.4462 233.72 92.5253C233.772 92.5253 233.825 92.5385 233.878 92.5516C233.878 92.5516 233.878 92.5516 233.904 92.5516C234.102 92.5648 234.313 92.5912 234.497 92.6176C234.788 92.6703 235.064 92.7494 235.368 92.8021C235.407 92.8021 235.526 92.8285 235.565 92.8285C235.684 92.8417 235.803 92.8549 235.935 92.8681C236.488 92.9076 237.042 92.9076 237.596 92.8944C238.176 92.8812 238.888 92.723 239.389 93.079C239.745 93.3427 239.85 93.7118 239.665 94.1205C239.375 94.7665 238.518 94.9643 237.899 95.083C237.226 95.228 236.567 95.2807 235.895 95.2412C235.249 95.2148 234.55 95.1489 233.931 94.9775C233.588 94.8852 233.258 94.7006 232.955 94.5424C232.573 94.3447 232.19 94.0678 232.085 93.6064C231.993 93.1977 232.151 92.8285 232.494 92.5912L232.454 92.6176Z" fill="black"/>
<path d="M250.819 82.5581C250.845 82.835 250.872 83.1118 250.911 83.3887C251.003 84.3116 251.148 85.1817 251.372 86.065C251.715 87.4625 252.203 88.8205 252.836 90.0993C254.55 93.5667 257.305 96.3881 260.535 98.458C261.221 98.9062 261.933 99.3149 262.658 99.6973C262.75 99.75 262.842 99.7764 262.908 99.7896C264.161 100.146 265.136 98.2866 263.857 97.6406C260.192 95.7948 257.279 92.6438 255.525 88.9523C254.523 86.8165 253.798 84.5357 253.614 82.1626C253.508 81.0156 253.521 79.8686 253.614 78.7084C253.653 78.1019 253.772 77.4823 253.811 76.889C253.811 76.744 253.811 76.5989 253.811 76.4539C253.811 76.1243 253.759 75.7947 253.653 75.4783C253.456 74.8191 252.612 74.5554 252.111 75.0564C251.597 75.5706 251.346 76.1639 251.188 76.8099C251.148 76.9022 251.135 76.9944 251.122 77.0736C251.003 77.535 250.951 78.0228 250.898 78.4974C250.713 79.8422 250.7 81.2133 250.819 82.5581Z" fill="black"/>
<path d="M260.469 97.6406C260.522 97.8516 260.575 98.0625 260.562 98.2866C260.562 98.2866 260.562 98.3086 260.562 98.3526C260.562 98.3526 260.562 98.4185 260.562 98.458C261.247 98.9063 261.959 99.315 262.684 99.6973C262.776 99.7501 262.869 99.7764 262.935 99.7896C262.935 99.2491 262.842 98.6294 262.605 98.1943C262.394 97.812 262.17 97.4033 261.933 97.0342C261.432 96.2695 260.298 96.7705 260.496 97.6406H260.469Z" fill="black"/>
<path d="M253.139 105.749C253.363 105.96 253.64 106.118 253.943 106.25C253.983 106.012 254.009 105.749 254.036 105.512C254.128 104.641 253.258 104.285 252.572 104.51C252.467 105.011 252.796 105.446 253.152 105.762L253.139 105.749Z" fill="black"/>
<path d="M251.201 124.549C253.245 129.427 257.358 133.33 262.776 133.857C265.466 134.108 268.076 133.554 270.674 132.947C271.715 132.723 272.757 132.46 273.798 132.275C275.512 131.945 277.252 131.721 279.006 131.853C284.543 132.262 289.157 136.217 292.295 140.515C295.736 145.235 298.306 150.68 300.811 155.953C303.382 161.359 305.729 166.936 307.403 172.684C308.748 177.298 310.449 182.928 308.722 187.661C306.955 192.434 301.655 193.541 297.12 193.778C284.899 194.424 272.44 192.829 260.614 189.797C258.927 189.362 258.228 191.906 259.902 192.394C266.811 194.398 273.851 195.795 281.023 196.587C287.588 197.285 294.562 197.905 301.101 196.89C306.085 196.125 310.501 193.541 312.281 188.637C314.061 183.719 312.769 178.248 311.319 173.435C309.526 167.503 307.245 161.728 304.635 156.098C302.077 150.601 299.374 144.998 295.947 139.988C294.246 137.496 292.268 135.189 289.961 133.303C289.276 132.736 288.551 132.196 287.799 131.721C286.52 130.891 285.149 130.205 283.686 129.665C280.812 128.636 278.017 128.649 275.209 129.032C274.642 129.111 274.062 129.203 273.482 129.295C271.385 129.678 269.289 130.192 267.14 130.535C264.372 130.97 261.524 130.904 259.072 129.388C256.976 128.082 255.46 125.907 254.563 123.639C252.375 118.155 253.35 111.958 253.996 106.25C254.036 106.012 254.062 105.749 254.088 105.512C254.181 104.641 253.311 104.285 252.625 104.51C252.309 104.615 252.045 104.852 251.926 105.208C250.12 111.457 248.644 118.313 251.254 124.549H251.201Z" fill="black"/>
<path d="M256.158 171.946C257.556 172.75 259.217 173.725 260.786 174.49C261.827 174.543 262.882 174.596 263.923 174.661C267.18 174.846 270.449 175.07 273.706 175.347C279.216 175.808 284.78 176.863 290.317 176.916C291.411 176.916 291.609 175.334 290.568 175.044C285.268 173.528 279.48 173.224 274.009 172.697C269.592 172.275 265.163 171.985 260.733 171.801C259.494 171.748 258.254 171.708 257.015 171.669C256.659 171.669 256.382 171.774 256.171 171.946H256.158Z" fill="black"/>
<path d="M254.036 105.511C254.009 105.749 253.983 106.012 253.943 106.25C253.297 111.958 252.309 118.168 254.51 123.639C255.42 125.907 256.923 128.082 259.019 129.388C261.471 130.904 264.319 130.97 267.087 130.535C269.236 130.192 271.346 129.678 273.429 129.295C273.64 128.966 273.864 128.636 274.062 128.307C274.431 127.7 275.446 128.082 275.235 128.808C275.209 128.887 275.182 128.966 275.156 129.032C277.964 128.649 280.746 128.636 283.633 129.664C285.096 130.205 286.481 130.891 287.746 131.721C288.498 132.196 289.223 132.723 289.908 133.303C291.662 131.589 291.925 129.19 291.438 126.672C290.844 123.6 288.959 121.24 286.916 118.972C284.767 116.573 282.104 114.437 280.561 111.55C278.926 108.504 278.795 105.05 278.834 101.675C278.755 101.649 278.689 101.596 278.636 101.556C277.147 100.594 275.077 98.6162 276.079 96.665C276.211 96.4276 276.566 96.2826 276.817 96.3749C277.648 96.6518 278.241 97.311 278.887 97.9043C278.887 99.1567 278.887 100.409 278.847 101.662C280.548 102.716 282.631 103.191 284.622 103.02C288.893 102.664 292.097 99.4336 293.323 95.4652C294.628 91.2068 293.521 86.6319 290.871 83.125C288.181 79.5521 283.844 76.4012 279.203 76.388C276.922 76.388 274.787 77.1395 273.099 78.682C272.638 79.1039 272.176 79.6312 271.82 80.2377C272.48 80.8969 273.112 81.5825 273.679 82.334C273.231 82.8613 272.862 83.4414 272.335 83.9029C272.058 84.127 271.557 84.1534 271.372 83.771C270.805 82.6372 271.161 81.332 271.834 80.2377C269.25 77.68 266.072 75.7288 262.552 74.6345C259.428 73.6589 256.145 73.4348 252.902 73.883C254.919 73.7644 256.936 74.094 258.834 74.9905C260.087 75.5706 261.287 76.4539 262.249 77.5218C263.884 79.3016 264.912 81.6088 264.688 83.9951C264.569 85.1553 262.961 85.4849 262.592 84.272C261.774 81.4902 260.206 79.2621 257.608 77.891C256.422 77.2713 255.13 76.9285 253.812 76.8626C253.772 77.4559 253.653 78.0755 253.614 78.682C253.535 79.8422 253.521 80.9892 253.614 82.1362C253.812 84.5093 254.523 86.7901 255.525 88.926C257.279 92.6175 260.192 95.7684 263.857 97.6142C265.149 98.2602 264.161 100.119 262.908 99.7632C262.829 99.7632 262.737 99.7236 262.658 99.6709C261.933 99.2886 261.221 98.8799 260.535 98.4316C260.509 98.5371 260.496 98.6294 260.482 98.7348C260.482 98.8535 260.482 98.959 260.482 99.0776C260.482 99.2358 260.456 99.3809 260.443 99.5391V99.5786C260.443 99.5786 260.443 99.6314 260.443 99.6709C260.417 99.8291 260.403 99.9741 260.377 100.119V100.146C260.377 100.264 260.337 100.356 260.311 100.475C260.258 100.739 260.166 101.002 260.1 101.253C260.074 101.319 260.061 101.345 260.061 101.358C260.034 101.398 260.021 101.438 259.995 101.49C259.942 101.596 259.889 101.688 259.823 101.794C259.757 101.925 259.665 102.057 259.599 102.189C259.599 102.189 259.507 102.295 259.48 102.347C259.309 102.545 259.151 102.73 258.966 102.901C258.966 102.901 258.834 103.006 258.782 103.072C258.782 103.072 258.755 103.099 258.742 103.099C258.65 103.151 258.571 103.217 258.492 103.27C258.294 103.415 258.096 103.521 257.885 103.626C257.885 103.626 257.701 103.705 257.688 103.718C257.608 103.758 257.516 103.784 257.45 103.811C257.226 103.89 256.989 103.956 256.765 103.995L256.541 104.035C256.422 104.035 256.303 104.061 256.185 104.061C255.96 104.061 255.71 104.061 255.486 104.061C255.459 104.061 255.301 104.061 255.262 104.061C255.169 104.035 255.09 104.022 255.011 104.008C254.774 103.956 254.537 103.916 254.312 103.877C253.746 103.784 252.849 103.784 252.638 104.444C252.638 104.47 252.638 104.496 252.638 104.523C253.324 104.312 254.194 104.668 254.102 105.525L254.036 105.511Z" fill="black"/>
<path d="M278.637 101.57C278.637 101.57 278.768 101.662 278.834 101.688C278.861 100.422 278.887 99.17 278.874 97.9175C278.241 97.3243 277.635 96.6651 276.804 96.3882C276.554 96.2959 276.198 96.4409 276.066 96.6782C275.077 98.6295 277.134 100.62 278.623 101.57H278.637Z" fill="black"/>
<path d="M271.359 83.7843C271.543 84.1666 272.044 84.1403 272.321 83.9161C272.862 83.4547 273.231 82.8746 273.666 82.3472C273.099 81.6089 272.466 80.9234 271.807 80.251C271.135 81.3452 270.792 82.6505 271.346 83.7843H271.359Z" fill="black"/>
<path d="M240.575 115.294C240.733 116.626 240.957 117.944 241.142 119.276C241.458 121.504 241.775 123.758 242.052 125.999C242.104 126.329 242.144 126.645 242.184 126.975C242.289 127.832 242.816 128.504 243.66 128.544C243.766 128.57 243.871 128.544 243.99 128.544C245.018 128.399 245.453 127.502 245.321 126.553C244.926 123.982 244.596 121.411 244.28 118.827C244.108 117.456 243.977 116.059 243.752 114.701C243.607 113.857 243.528 112.591 242.948 111.813C242.777 111.589 242.579 111.391 242.315 111.273C241.854 111.062 241.445 111.101 241.05 111.444C240.733 111.708 240.549 112.077 240.483 112.486C240.285 113.382 240.483 114.503 240.588 115.294H240.575Z" fill="black"/>
<path d="M188.909 173.884C190.833 171.853 192.099 168.94 193.549 166.567C194.999 164.193 196.476 161.847 198.018 159.553C203.252 151.721 209.343 144.18 217.016 138.59C220.826 135.808 224.992 133.514 229.422 131.893C231.162 131.247 232.955 130.68 234.761 130.218C235.236 130.1 235.711 129.994 236.172 129.889C236.37 129.836 236.594 129.796 236.792 129.757C238.967 129.295 241.182 129.098 243.37 128.649C243.476 128.623 243.581 128.597 243.66 128.544C244.847 128.017 244.359 126.065 243.014 125.999C242.698 125.999 242.395 125.999 242.052 125.999C239.745 126.039 237.319 126.514 235.078 127.001C234.893 127.054 234.709 127.094 234.524 127.133C234.142 127.226 233.759 127.318 233.39 127.41C231.03 127.99 228.723 128.742 226.469 129.665C225.243 130.166 224.043 130.706 222.87 131.299C222.079 131.695 221.288 132.117 220.523 132.565C214.168 136.191 208.605 141.121 203.819 146.672C200.484 150.548 197.478 154.701 194.67 158.986C193.206 161.214 191.809 163.495 190.411 165.775C189.106 167.911 187.392 170.179 186.615 172.565C186.193 173.857 187.973 174.846 188.882 173.884H188.909Z" fill="black"/>
<path d="M233.403 127.41C233.799 128.359 234.26 129.295 234.748 130.218C238.268 136.797 243.845 142.321 251.478 143.508C260.496 144.905 269.606 140.199 273.785 132.262C274.339 131.233 274.787 130.152 275.156 129.018C275.182 128.939 275.209 128.86 275.235 128.794C275.446 128.069 274.431 127.687 274.062 128.293C273.864 128.623 273.64 128.953 273.429 129.282C272.598 130.561 271.676 131.774 270.66 132.921C265.756 138.511 258.94 142.308 251.122 140.831C244.675 139.605 240.246 134.991 236.792 129.73C236.198 128.821 235.618 127.911 235.078 126.975C234.893 127.028 234.709 127.067 234.524 127.107C234.142 127.199 233.759 127.291 233.39 127.384L233.403 127.41Z" fill="black"/>
<path d="M220.549 132.565C221.314 132.117 222.105 131.695 222.896 131.299C224.069 130.719 225.269 130.165 226.495 129.664C228.749 128.742 231.057 127.99 233.416 127.41C233.786 127.305 234.168 127.212 234.55 127.133C234.735 127.094 234.906 127.054 235.104 127.001C237.345 126.5 239.771 126.039 242.078 125.999C241.814 123.758 241.498 121.504 241.168 119.275C240.971 117.944 240.747 116.626 240.602 115.294C240.509 114.503 240.298 113.382 240.496 112.486C239.758 112.275 239.046 111.919 238.453 111.655C237.253 111.128 236.08 110.469 235.012 109.704C235.012 109.704 234.972 109.678 234.959 109.664C234.181 109.097 233.443 108.465 232.77 107.779C232.335 110.086 231.637 112.38 230.424 114.384C229 116.731 226.785 118.181 224.768 119.948C222.856 121.622 221.433 123.771 220.813 126.25C220.338 128.135 220.061 130.574 220.562 132.552L220.549 132.565Z" fill="black"/>
<path d="M232.889 106.949C232.85 107.225 232.797 107.515 232.744 107.792C233.417 108.478 234.155 109.124 234.933 109.678C234.972 108.781 234.906 107.871 234.735 106.949C234.55 106.052 233.021 106.012 232.889 106.949Z" fill="black"/>
<path d="M220.549 132.565C220.615 132.815 220.694 133.066 220.773 133.29C221.327 134.78 223.318 134.187 223.107 132.657C223.041 132.196 222.949 131.748 222.896 131.312C222.105 131.708 221.314 132.13 220.549 132.578V132.565Z" fill="black"/>
<path d="M278.346 153.791C280.047 156.942 281.102 160.475 282.38 163.811C283.013 165.446 283.58 167.107 284.16 168.755C284.767 170.482 285.61 172.341 285.861 174.147C286.045 175.518 284.305 176.52 283.488 175.149C282.565 173.594 282.051 171.629 281.444 169.928C280.864 168.28 280.271 166.619 279.744 164.958C278.649 161.53 277.265 158.063 276.619 154.516C276.435 153.528 277.806 152.789 278.333 153.791H278.346Z" fill="black"/>
<path d="M233.706 182.875C234.366 179.078 239.692 177.127 242.988 176.613C245.203 176.27 247.457 176.336 249.645 176.837C251.597 177.285 254.312 178.103 255.196 180.067C255.407 180.542 255.169 181.227 254.55 181.188C252.941 181.082 251.557 180.12 250.028 179.658C248.393 179.157 246.719 178.96 245.018 179.039C243.331 179.118 241.643 179.5 240.101 180.172C238.809 180.739 236.409 181.755 236.119 183.337C235.684 185.683 239.415 184.299 240.404 183.864C241.973 183.152 243.502 182.269 245.229 182.031C248.143 181.636 250.621 183.033 252.836 184.774C255.301 186.712 257.397 188.795 260.562 189.428C262.051 189.718 261.709 192.104 260.206 192.064C256.844 191.985 254.194 189.388 251.755 187.371C250.582 186.395 249.29 185.38 247.813 184.932C245.901 184.339 244.042 185.051 242.249 185.723C240.47 186.395 238.453 187.147 236.515 186.764C234.656 186.395 233.377 184.747 233.706 182.849V182.875Z" fill="black"/>
<path d="M231.544 177.364C231.874 179.025 234.432 178.327 234.076 176.665C233.509 174.095 234.801 171.576 236.765 169.942C238.98 168.083 241.946 167.608 244.754 167.858C247.958 168.162 251.043 169.388 253.917 170.746C254.51 171.023 255.288 171.458 256.145 171.946C257.542 172.75 259.204 173.725 260.772 174.49C261.814 174.543 262.869 174.596 263.91 174.661C263.304 173.989 262.539 173.224 262.368 173.053C261.867 172.565 261.313 172.17 260.72 171.801C259.744 171.207 258.676 170.719 257.687 170.179C255.947 169.243 254.207 168.307 252.401 167.503C249.144 166.052 245.572 165.024 241.946 165.354C235.934 165.907 230.279 170.904 231.544 177.377V177.364Z" fill="black"/>
<path d="M233.641 179.724C234.893 176.125 237.926 173.093 241.617 172.038C243.568 171.484 245.651 171.445 247.629 171.866C248.617 172.064 249.567 172.407 250.476 172.842C251.241 173.211 252.48 173.95 252.428 174.925C252.414 175.242 252.23 175.439 251.94 175.558C251.254 175.848 250.305 175.294 249.685 175.004C248.908 174.648 248.117 174.385 247.273 174.213C245.625 173.87 243.898 173.963 242.289 174.464C239.218 175.413 236.871 177.628 235.552 180.542C235.065 181.609 233.259 180.858 233.641 179.737V179.724Z" fill="black"/>
<path d="M232.243 174.477C233.087 172.381 234.906 170.97 236.884 169.994C239.046 168.926 241.432 168.386 243.832 168.333C245.058 168.307 246.297 168.491 247.483 168.768C248.037 168.9 248.578 169.045 249.105 169.256C249.751 169.507 250.081 169.902 250.595 170.324C251.003 170.654 250.687 171.497 250.146 171.418C249.646 171.352 249.184 171.418 248.683 171.313C248.222 171.207 247.773 171.049 247.325 170.944C246.35 170.719 245.387 170.614 244.385 170.574C242.394 170.469 240.443 170.68 238.545 171.339C236.897 171.906 235.302 172.948 234.471 174.516C234.089 175.228 233.917 176.059 233.97 176.863C234.023 177.733 234.445 178.366 234.853 179.105C235.499 180.252 234.062 181.214 233.113 180.449C231.452 179.091 231.492 176.31 232.23 174.49L232.243 174.477Z" fill="black"/>
<path d="M281.642 169.309C282.961 167.437 285.136 165.947 287.127 164.866C289.289 163.692 291.715 163.007 294.141 162.69C296.659 162.374 299.216 162.532 301.682 163.112C302.855 163.389 304.041 163.772 305.136 164.273C306.164 164.747 307.522 165.301 307.838 166.487C307.944 166.896 307.706 167.358 307.285 167.463C306.283 167.727 305.452 167.147 304.529 166.791C303.501 166.395 302.459 166.026 301.378 165.776C299.15 165.235 296.804 165.116 294.523 165.446C292.44 165.749 290.462 166.448 288.577 167.371C286.599 168.346 285.083 169.731 283.33 171.023C282.328 171.761 280.904 170.311 281.616 169.309H281.642Z" fill="black"/>
<path d="M317.778 280.484C317.501 284.307 316.644 288.196 314.073 291.149C311.12 294.525 306.703 295.197 302.445 295.408C297.264 295.658 292.056 295.843 286.862 296.027C276.605 296.397 266.335 296.621 256.078 296.476C251.292 296.397 246.19 295.962 242.143 293.852C240.284 293.562 238.491 292.916 236.87 291.809C232.018 288.473 232.005 282.725 231.636 277.412L231.029 268.618C230.845 266.166 230.581 263.7 230.792 261.248C231.214 256.225 233.653 252.059 238.623 250.464C242.644 249.158 247.192 249.738 251.319 249.91C255.458 250.094 259.585 250.292 263.725 250.477C267.007 250.16 270.33 249.963 273.639 249.725C279.73 249.277 285.807 248.895 291.898 248.499C294.917 248.315 297.936 248.104 300.968 247.932C303.473 247.774 306.071 247.787 308.417 248.855C308.641 248.961 308.839 249.092 309.037 249.211C309.722 249.264 310.408 249.317 311.107 249.369C312.834 249.528 314.706 249.673 315.998 250.978C317.132 252.112 317.369 253.773 317.461 255.302C317.725 259.758 317.659 264.254 317.553 268.723C317.553 269.093 317.553 269.462 317.553 269.831C317.962 273.364 318.054 276.99 317.804 280.484H317.778Z" fill="#BFE7C2"/>
<path d="M220.932 247.595C233.14 247.793 245.335 248.479 257.543 248.65C269.738 248.821 281.946 248.716 294.127 248.03C303.448 247.503 315.485 247.609 322.143 239.896C328.286 232.763 326.968 221.807 321.035 215.044C317.489 211.01 312.756 208.228 307.562 206.91C301.167 205.275 295.063 206.119 288.656 207.028C287.681 207.173 286.56 206.633 286.6 205.473C286.718 202.664 286.52 199.83 286.837 197.035C286.916 196.283 287.984 196.033 288.221 196.85C288.814 198.973 289.104 201.161 289.474 203.337C294.655 201.689 300.574 201.61 305.821 202.48C311.055 203.363 315.999 205.552 320.152 208.848C328.141 215.189 332.215 225.895 328.735 235.756C327.06 240.516 323.817 244.431 319.4 246.91C314.878 249.441 309.697 250.39 304.595 250.918C291.728 252.236 278.637 252.21 265.717 252.078C250.793 251.92 235.803 251.524 220.905 250.535C219.06 250.417 219.02 247.609 220.905 247.635L220.932 247.595Z" fill="black"/>
<path d="M140.05 208.281C145.416 202.097 153.84 199.236 161.856 199.329C163.24 199.342 163.649 201.557 162.199 201.82C155.686 202.994 148.738 205.011 143.979 209.876C138.587 215.387 137.493 223.482 138.297 230.838C139.22 239.197 142.028 247.477 144.572 255.453C147.169 263.561 150.07 271.577 153.115 279.527C156.609 288.611 160.248 297.655 163.952 306.66C164.862 308.861 161.289 309.811 160.379 307.648C153.352 290.786 146.246 273.95 140.67 256.521C137.941 247.991 135.027 239.184 134.157 230.232C133.406 222.506 134.829 214.279 140.037 208.267L140.05 208.281Z" fill="black"/>
<path d="M148.303 173.409C149.265 180.502 150.28 187.608 151.295 194.701C151.823 198.353 152.324 202.018 152.864 205.657C153.326 208.834 153.352 212.631 154.96 215.492C156.371 218.037 159.1 219.197 161.856 219.619C165.191 220.146 168.579 220.384 171.954 220.7C179.205 221.386 186.469 221.913 193.747 222.308C195.909 222.427 196.476 219.975 195.447 218.617C195.738 218.155 196.001 217.668 196.291 217.219C196.964 216.204 197.715 215.202 198.598 214.358C200.826 212.249 203.49 212.117 206.205 213.33C208.776 214.464 210.965 216.323 213.456 217.602C215.948 218.881 218.545 219.382 221.327 219.421C227.418 219.5 233.627 218.591 239.692 218.09C242.856 217.839 246.007 217.589 249.171 217.325C252.243 217.061 255.42 216.969 258.452 216.402C258.703 216.349 258.914 216.257 259.085 216.138C259.256 216.217 259.441 216.231 259.665 216.191C261.155 215.901 261.603 214.2 261.247 212.895C260.812 211.353 259.665 210.126 258.228 209.467C256.672 208.742 254.958 208.531 253.284 208.281C251.28 207.977 249.276 207.714 247.272 207.529C239.995 206.83 232.678 206.699 225.374 206.751C224.491 199.236 223.041 191.735 221.854 184.273C221.208 180.225 220.562 176.164 219.89 172.104C219.336 168.742 218.321 165.499 215.117 163.758C212.56 162.361 209.541 162.189 206.68 161.86C203.134 161.464 199.614 161.069 196.054 160.739C188.75 160.04 181.42 159.513 174.09 159.17C170.517 158.999 166.971 158.88 163.398 158.801C159.97 158.709 156.477 158.472 153.049 158.669C150.043 158.841 147.683 160.462 147.288 163.6C146.879 166.764 147.868 170.284 148.29 173.396L148.303 173.409Z" fill="black"/>
<path d="M224.03 219.395C225.954 217.879 229.171 218.063 231.505 217.773C234.431 217.417 237.358 217.022 240.298 216.692C245.954 216.059 251.61 215.479 257.279 214.965C262.935 214.451 268.604 213.989 274.272 213.607C280.086 213.225 286.098 212.513 291.912 213.014C292.796 213.093 293.112 214.438 292.136 214.662C286.533 215.941 280.614 216.138 274.905 216.666C269.236 217.193 263.581 217.707 257.912 218.221C252.256 218.736 246.587 219.237 240.931 219.777C238.004 220.054 235.064 220.278 232.138 220.555C229.751 220.779 226.442 221.715 224.201 220.647C223.766 220.436 223.647 219.685 224.043 219.382L224.03 219.395Z" fill="black"/>
<path d="M217.662 233.317C218.058 230.693 218.783 228.136 219.811 225.697C220.813 223.31 222.131 220.621 224.082 218.867C225.322 217.747 227.141 219.144 226.376 220.647C225.309 222.743 223.924 224.629 223.001 226.817C222.065 229.045 221.406 231.405 221.077 233.805C220.76 236.112 220.694 238.512 220.866 240.832C221.063 243.337 221.894 245.486 222.54 247.872C223.028 249.652 220.338 250.904 219.481 249.164C218.348 246.857 217.886 244.036 217.557 241.491C217.201 238.749 217.227 236.072 217.636 233.33L217.662 233.317Z" fill="black"/>
<path d="M174.38 260.384C175.092 261.425 177.004 261.544 177.346 260.028C177.346 260.028 177.346 259.988 177.346 259.975C178.296 255.255 179.878 250.68 181.802 246.277C182.185 245.367 182.593 244.471 183.015 243.574C183.411 242.73 183.82 241.887 184.241 241.056C186.113 237.299 188.21 233.633 190.411 230.047C191.782 227.819 193.206 225.604 194.63 223.39C195.962 221.359 197.188 219.184 198.704 217.285C200.431 215.123 202.593 214.358 205.269 215.268C207.603 216.072 209.554 217.76 211.716 218.92C213.839 220.054 216.133 221.03 218.506 221.491C220.721 221.939 223.291 222.388 225.388 221.293C225.928 221.016 225.981 220.054 225.388 219.79C223.964 219.157 222.461 219.118 220.945 218.881C219.494 218.656 218.044 218.301 216.647 217.852C213.654 216.903 211.281 215.097 208.592 213.581C206.469 212.381 204.043 211.55 201.565 211.985C199.218 212.394 197.491 214.029 196.094 215.875C192.89 220.094 190.016 224.642 187.208 229.138C185.81 231.392 184.479 233.673 183.226 235.993C182.343 237.575 181.526 239.184 180.748 240.792C177.913 246.62 175.646 252.671 174.116 259.065C173.985 259.58 174.103 260.028 174.327 260.357L174.38 260.384Z" fill="black"/>
<path d="M211.373 244.906C212.217 244.748 213.061 244.945 213.891 245.051C214.656 245.143 215.421 245.249 216.185 245.341C217.016 245.446 217.847 245.578 218.677 245.723C219.059 245.789 219.429 245.855 219.811 245.921C220.338 246.013 220.721 246.237 220.997 246.712C221.222 247.121 221.142 247.582 220.839 247.925C220.193 248.65 219.191 248.413 218.321 248.36C217.556 248.32 216.792 248.281 216.027 248.215L213.733 248.004C212.81 247.925 211.888 247.912 211.031 247.543C210.516 247.318 210.266 246.607 210.345 246.106C210.411 245.578 210.82 245.011 211.387 244.906H211.373Z" fill="black"/>
<path d="M204.703 236.217C208.025 234.873 211.031 232.21 213.259 229.441C214.38 228.043 215.342 226.488 216.146 224.906C216.99 223.258 217.385 221.425 218.361 219.856C218.981 218.854 220.299 219.368 220.418 220.41C220.668 222.506 219.719 224.616 218.875 226.501C218.045 228.347 216.964 230.021 215.698 231.603C213.391 234.477 210.583 236.573 207.379 238.248C208.341 239.606 209.317 240.951 210.345 242.256C211.637 243.891 213.101 245.209 213.681 247.239C213.826 247.727 213.351 248.215 212.85 248.07C210.662 247.398 209.37 245.67 207.933 243.983C206.417 242.229 205.019 240.41 203.806 238.446C203.239 237.536 203.846 236.56 204.716 236.217H204.703Z" fill="black"/>
<path d="M202.171 248.716C203.015 248.373 203.793 249.072 204.492 249.441C205.138 249.784 205.81 250.1 206.482 250.377C207.919 250.97 209.422 251.564 210.925 251.959C211.861 252.21 213.193 252.381 213.852 251.471C214.735 250.258 214.01 248.914 213.944 247.608C213.865 246.185 215.777 245.881 216.475 246.923C217.029 247.753 217.214 249.032 217.227 250.021C217.24 250.944 217.042 251.92 216.568 252.724C215.619 254.398 213.707 255.163 211.835 254.978C209.897 254.781 207.998 253.91 206.205 253.185C205.309 252.816 204.412 252.434 203.555 251.986C202.633 251.498 201.354 250.997 201.341 249.784C201.341 249.243 201.697 248.9 202.158 248.716H202.171Z" fill="black"/>
<path d="M174.328 263.034C174.525 264.603 175.132 266.066 176.45 267.015C179.522 269.23 183.055 267.371 185.52 265.249C185.573 265.196 185.639 265.143 185.692 265.09C186.641 264.247 187.577 263.429 188.54 262.638C190.583 260.951 192.692 259.395 194.96 257.971C196.661 256.93 198.401 255.954 200.194 255.071C201.934 254.214 203.991 253.634 205.573 252.513C206.627 251.748 206.443 249.599 204.835 249.744C201.723 250.061 198.506 252.012 195.804 253.489C192.996 255.031 190.319 256.785 187.775 258.736C187.749 258.736 187.709 258.775 187.683 258.802C186.694 259.566 185.705 260.371 184.756 261.201C184.466 261.439 184.176 261.702 183.873 261.953C182.831 262.889 181.75 263.93 180.379 264.392C179.047 264.827 177.808 264.418 177.426 263.007C177.241 262.375 177.268 261.676 177.32 261.03C177.347 260.713 177.347 260.371 177.347 260.041C177.347 259.711 177.347 259.355 177.373 259.026C177.544 257.549 175.224 257.325 174.855 258.683C174.71 259.263 174.499 259.777 174.38 260.41C174.354 260.555 174.328 260.687 174.314 260.845C174.235 261.584 174.235 262.309 174.314 263.06L174.328 263.034Z" fill="black"/>
<path d="M199.033 223.548C204.03 222.427 208.776 220.186 212.85 217.074C213.14 216.85 213.601 216.916 213.905 217.074C214.129 217.193 214.287 217.364 214.353 217.602C214.353 217.628 214.366 217.668 214.379 217.694C214.472 218.024 214.379 218.485 214.116 218.709C209.91 222.216 204.927 224.484 199.495 225.222C198.427 225.367 197.913 223.798 199.033 223.548Z" fill="black"/>
<path d="M188.342 241.676C190.557 243.732 192.112 246.396 192.877 249.322C193.246 250.733 193.444 252.223 193.444 253.686C193.444 255.031 193.391 257.114 192.376 258.129C191.928 258.578 191.11 258.38 190.952 257.76C190.781 257.127 190.979 256.495 191.031 255.862C191.097 255.176 191.176 254.504 191.189 253.818C191.216 252.5 191.071 251.195 190.741 249.929C190.095 247.371 188.777 244.998 186.905 243.126C185.982 242.19 187.393 240.806 188.342 241.689V241.676Z" fill="black"/>
<path d="M186.008 241.913C187.669 238.525 189.489 235.189 191.559 232.025C192.587 230.469 193.655 228.94 194.762 227.437C195.29 226.725 195.83 226.026 196.371 225.328C196.937 224.602 197.518 223.627 198.388 223.258C199.047 222.981 199.693 223.429 199.574 224.167C199.429 225.011 198.77 225.697 198.269 226.369C197.702 227.147 197.148 227.925 196.608 228.716C195.553 230.245 194.538 231.814 193.576 233.396C191.638 236.587 189.805 239.817 188.184 243.179C187.472 244.642 185.27 243.363 185.995 241.9L186.008 241.913Z" fill="black"/>
<path d="M198.506 241.597C199.126 241.122 199.851 241.135 200.55 241.452C201.459 241.873 202.132 242.889 202.633 243.732C203.107 244.523 203.477 245.394 203.767 246.277C204.057 247.147 204.189 248.044 204.215 248.966C204.228 249.507 204.175 250.021 203.991 250.522C203.819 250.997 203.608 251.419 203.16 251.696C202.672 251.999 202.026 252.025 201.539 251.722C200.959 251.379 200.774 250.825 200.55 250.232C200.523 250.153 200.484 250.074 200.471 249.995C200.444 249.823 200.431 249.652 200.405 249.481C200.405 249.56 200.431 249.652 200.444 249.731C200.392 249.573 200.392 249.388 200.352 249.23C200.207 248.545 200.036 247.833 199.812 247.173C199.759 247.028 199.706 246.883 199.653 246.738C199.627 246.686 199.614 246.633 199.587 246.58C199.442 246.264 199.284 245.96 199.1 245.67C198.678 244.958 198.15 244.326 197.874 243.535C197.636 242.849 197.992 242.032 198.533 241.61L198.506 241.597Z" fill="black"/>
<path d="M194.314 245.539C194.868 245.249 195.487 245.341 195.962 245.749C196.291 246.04 196.608 246.33 196.872 246.699C197.043 246.949 197.201 247.226 197.359 247.49C197.715 248.083 198.045 248.676 198.348 249.296C198.691 249.968 198.981 250.68 199.245 251.392C199.508 252.117 199.983 253.093 199.666 253.858C199.495 254.266 199.297 254.556 198.889 254.741C198.493 254.912 198.071 254.886 197.689 254.675C197.135 254.372 196.898 253.844 196.674 253.291C196.647 253.225 196.621 253.146 196.595 253.08C196.542 252.948 196.476 252.816 196.423 252.684C196.146 252.078 195.856 251.485 195.566 250.878C195.276 250.272 194.973 249.692 194.643 249.111C194.485 248.848 194.314 248.584 194.169 248.307C193.958 247.925 193.852 247.503 193.707 247.094C193.523 246.554 193.826 245.829 194.327 245.565L194.314 245.539Z" fill="black"/>
<path d="M187.682 258.815C186.693 259.58 185.705 260.384 184.755 261.214C185.006 262.559 185.283 263.904 185.533 265.249C186.773 271.748 187.999 278.248 189.291 284.735C189.752 287.029 193.219 286.053 192.771 283.772C191.426 276.719 189.963 269.692 188.539 262.638C188.289 261.333 188.012 260.041 187.775 258.736C187.748 258.736 187.709 258.775 187.682 258.802V258.815Z" fill="black"/>
<path d="M178.085 225.156C178.507 230.113 179.693 235.018 180.603 239.909C180.656 240.212 180.722 240.516 180.788 240.832C181.117 242.651 181.46 244.471 181.816 246.29C182.198 245.38 182.607 244.484 183.029 243.587C183.424 242.744 183.833 241.9 184.255 241.069C184.149 240.595 184.07 240.12 183.965 239.659C183.728 238.459 183.477 237.246 183.266 236.033C182.541 232.262 181.829 228.452 180.682 224.8C180.247 223.455 177.966 223.627 178.098 225.156H178.085Z" fill="black"/>
<path d="M158.626 298.921C161.46 298.868 164.585 297.76 167.274 296.943C170.083 296.099 172.838 295.163 175.58 294.122C177.624 293.357 179.667 292.526 181.684 291.63C182.699 291.168 183.728 290.694 184.716 290.193C187.037 289.046 189.278 287.741 191.374 286.264C192.429 285.526 191.809 283.482 190.425 284.036C188.118 284.959 185.85 285.934 183.583 286.91C182.607 287.345 181.631 287.767 180.656 288.176C178.56 289.085 176.477 289.955 174.354 290.76C171.625 291.788 168.856 292.737 166.062 293.581C163.385 294.385 160.393 294.913 157.861 296.086C156.49 296.745 157.202 298.921 158.626 298.907V298.921Z" fill="black"/>
<path d="M172.311 352.935C175.976 347.451 179.931 342.164 183.741 336.772C187.103 331.999 190.702 327.424 194.393 322.889C195.329 321.742 196.226 320.569 197.122 319.382C198.058 318.143 198.388 317.536 198.124 315.981C197.729 313.542 196.595 311.142 195.211 309.125C193.734 306.989 191.941 305.104 190.412 302.994C188.79 300.753 187.617 298.261 186.668 295.664C185.995 293.858 185.349 292.025 184.73 290.18C184.453 289.415 184.189 288.637 183.925 287.859C183.807 287.543 183.714 287.226 183.596 286.897C182.62 287.332 181.645 287.754 180.669 288.162C180.985 289.243 181.302 290.325 181.631 291.419C181.631 291.485 181.671 291.551 181.697 291.617C182.62 294.702 183.556 297.76 184.954 300.661C186.404 303.706 188.487 306.238 190.583 308.848C192.455 311.155 194.301 313.66 194.565 316.679C190.161 322.032 186.285 327.82 182.132 333.357C177.755 339.211 173.748 345.302 169.674 351.366C168.566 353.014 171.243 354.557 172.337 352.922L172.311 352.935Z" fill="black"/>
<path d="M154.882 306.132C156.556 305.143 158.692 305.552 160.511 305.71C163.042 305.934 165.587 306.185 168.118 306.435C170.003 306.62 172.693 307.319 174.248 305.895C175.092 305.117 175.685 303.878 176.292 302.942C176.925 301.979 177.544 301.004 178.177 300.041C179.575 297.905 180.893 295.453 182.686 293.621C183.002 293.304 183.503 293.172 183.938 293.291C184.097 293.331 184.321 293.383 184.426 293.528C184.453 293.555 184.479 293.594 184.505 293.621C184.769 293.963 185.019 294.425 184.835 294.873C184.004 296.903 182.62 298.762 181.407 300.595C180.155 302.48 178.942 304.392 177.65 306.251C176.701 307.635 175.554 309.191 173.919 309.784C171.954 310.496 169.845 310.101 167.841 309.89C165.587 309.666 163.332 309.428 161.078 309.178C160.313 309.099 156.661 308.268 156.516 309.323C156.424 310.021 157.518 311.406 157.848 311.96C158.375 312.843 158.929 313.713 159.509 314.557C160.748 316.363 162.119 318.024 163.583 319.646C165.033 321.241 162.647 323.641 161.21 322.019C159.628 320.252 158.164 318.367 156.82 316.429C155.62 314.702 154.275 312.83 153.55 310.839C152.917 309.125 153.207 307.121 154.895 306.132H154.882Z" fill="black"/>
<path d="M156.688 351.459C157.202 355.559 160.353 358.802 164.571 358.987C168.579 359.171 172.521 355.743 172.073 351.63C171.954 350.589 170.399 349.837 169.845 351.024C168.619 353.634 166.009 356.06 162.963 354.821C159.496 353.41 159.957 349.257 160.405 346.225C160.577 345.091 160.735 343.97 160.933 342.836C161.078 341.808 161.236 340.753 161.407 339.725C161.882 336.693 162.37 333.647 162.858 330.615C163.108 329.072 163.359 327.517 163.609 325.974L164.413 320.885C164.756 318.789 161.539 317.879 161.183 319.989C160.827 322.19 160.485 324.379 160.129 326.594C159.931 327.886 159.72 329.151 159.522 330.443L158.533 336.679C158.428 337.339 158.322 338.024 158.204 338.683C158.046 339.646 157.887 340.621 157.716 341.584C157.545 342.625 157.386 343.667 157.202 344.695C156.833 346.937 156.411 349.191 156.688 351.446V351.459Z" fill="black"/>
<path d="M188.948 303.535C189.317 302.731 190.557 303.311 190.346 304.128C188.869 309.745 187.828 315.48 188.592 321.294C188.777 322.731 186.377 322.797 186.298 321.294C185.969 315.256 186.443 309.099 188.961 303.548L188.948 303.535Z" fill="black"/>
<path d="M170.781 341.03C171.981 339.264 173.352 337.629 174.683 335.968C176.068 334.227 177.32 332.382 178.691 330.628C180.009 328.941 181.328 327.24 182.738 325.631C184.083 324.089 185.402 322.072 187.155 320.991C187.748 320.621 188.579 321.241 188.368 321.913C187.761 323.838 186.193 325.526 185.046 327.161C183.78 328.967 182.409 330.72 181.064 332.461C179.733 334.161 178.282 335.77 176.964 337.484C175.632 339.224 174.34 341.017 172.864 342.652C171.875 343.759 169.937 342.296 170.781 341.043V341.03Z" fill="black"/>
<path d="M157.703 341.597C158.744 342.098 159.826 342.533 160.933 342.85C161.487 343.021 162.027 343.153 162.594 343.271C164.282 343.614 166.009 343.812 167.736 343.812C168.632 343.812 169.489 343.707 170.372 343.588C171.243 343.456 172.113 343.351 172.759 342.691C173.299 342.164 173.273 341.043 172.508 340.701C171.691 340.318 170.979 340.437 170.109 340.49C169.318 340.542 168.527 340.556 167.736 340.569C166.259 340.569 164.769 340.45 163.306 340.173C162.673 340.041 162.04 339.91 161.421 339.751C160.326 339.461 159.259 339.132 158.204 338.71C158.046 339.672 157.888 340.648 157.716 341.61L157.703 341.597Z" fill="black"/>
<path d="M163.411 319.699C163.992 319.527 164.598 319.422 165.178 319.29C165.745 319.158 166.312 319.039 166.879 318.908C168.039 318.657 169.199 318.393 170.359 318.143C171.322 317.932 172.455 318.433 172.693 319.461C172.917 320.424 172.403 321.571 171.374 321.795C170.214 322.045 169.054 322.309 167.894 322.559C167.327 322.678 166.76 322.81 166.193 322.942C165.613 323.074 165.007 323.245 164.413 323.324C163.886 323.39 163.438 323.416 162.963 323.14C162.568 322.915 162.199 322.467 162.093 322.019C161.856 321.004 162.396 320.015 163.411 319.699Z" fill="black"/>
<path d="M159.219 327.2C159.641 326.857 159.983 326.607 160.511 326.475C160.695 326.436 160.88 326.396 161.078 326.37C161.513 326.29 161.961 326.211 162.396 326.145C163.438 325.987 164.505 325.816 165.547 325.789C166.443 325.763 167.327 325.789 168.223 325.816C168.777 325.842 169.37 325.829 169.898 325.974C170.623 326.172 171.124 326.567 171.559 327.161C171.981 327.741 171.743 328.558 171.321 329.046C170.491 329.982 169.265 329.929 168.131 329.995C167.3 330.048 166.47 330.114 165.652 330.219C165.244 330.272 164.835 330.312 164.413 330.351C164.189 330.378 163.965 330.404 163.754 330.43C163.728 330.43 163.714 330.43 163.688 330.43C163.662 330.43 163.635 330.43 163.583 330.443C162.515 330.615 161.209 331.05 160.168 330.76C158.731 330.364 157.927 328.229 159.219 327.174V327.2Z" fill="black"/>
<path d="M183.121 180.133C184.914 180.041 186.799 180.99 187.986 182.295C188.685 183.073 189.146 183.956 189.476 184.945C189.542 185.13 189.568 185.275 189.594 185.433C189.911 186 190.188 186.619 190.398 187.239C190.899 188.874 190.754 190.838 189.832 192.289C188.25 194.767 184.848 195.743 182.159 194.662C179.219 193.462 177.399 190.469 177.307 187.345C177.188 183.851 179.403 180.317 183.134 180.133H183.121Z" fill="white"/>
<path d="M222.527 200.977C224.94 200.225 227.55 199.342 227.629 196.441C227.721 193.37 227.431 190.205 227.326 187.134C227.22 184.022 226.904 181.122 225.401 178.34C224.162 176.046 222.566 173.923 221.63 171.471C218.44 163.191 221.024 153.132 227.734 147.384C227.444 145.894 227.128 144.417 226.746 142.928C226.535 142.084 227.695 141.82 228.011 142.572C228.67 144.154 229.382 145.683 230.16 147.212C230.398 147.674 230.398 148.346 229.962 148.715C226.245 151.919 223.924 156.481 223.423 161.359C223.186 163.6 223.344 165.868 223.924 168.043C224.623 170.667 226.021 172.961 227.313 175.321C228.736 177.905 229.646 180.581 229.962 183.521C230.305 186.58 230.371 189.691 230.556 192.776C230.714 195.479 231.109 198.353 229.145 200.515C227.629 202.19 225.335 202.928 223.226 203.495C221.591 203.93 220.918 201.465 222.527 200.964V200.977Z" fill="black"/>
<path d="M229.079 200.107C232.296 204.576 235.697 209.059 241.129 210.852C243.832 211.748 246.666 212.091 249.487 212.381C252.612 212.697 255.75 213.014 258.887 212.79C264.227 212.407 269.237 210.021 274.115 208.017C278.452 206.237 284.042 203.759 288.814 204.971C289.777 205.222 289.843 206.778 288.814 206.989C286.705 207.411 284.596 207.556 282.526 208.162C280.469 208.768 278.505 209.599 276.554 210.496C272.625 212.315 268.788 214.358 264.543 215.387C259.678 216.573 254.695 216.072 249.791 215.466C245.242 214.899 240.496 214.438 236.488 212.025C232.296 209.52 229.409 205.446 226.653 201.504C225.612 200.014 228.038 198.63 229.079 200.093V200.107Z" fill="black"/>
<path d="M215.764 174.859C215.829 174.556 215.988 174.358 216.185 174.121C216.225 174.068 216.265 174.015 216.317 173.963C216.475 173.343 217.069 172.829 217.504 172.407C217.899 172.025 218.282 171.656 218.664 171.273C219.033 170.904 219.389 170.508 219.732 170.1C219.903 169.889 220.075 169.678 220.246 169.48C220.338 169.375 220.417 169.269 220.51 169.177C220.589 169.085 220.892 168.689 220.602 169.058C220.852 168.729 221.09 168.478 221.498 168.359C221.854 168.254 222.342 168.307 222.659 168.518C223.357 168.966 223.608 169.836 223.199 170.588C222.593 171.695 221.828 172.684 220.971 173.594C220.51 174.081 220.009 174.49 219.468 174.899C219.244 175.07 219.02 175.255 218.756 175.36C218.545 175.452 218.308 175.584 218.084 175.65C217.926 175.69 217.767 175.677 217.622 175.677C217.187 175.808 216.752 175.94 216.304 175.835C215.882 175.729 215.671 175.281 215.764 174.886V174.859Z" fill="black"/>
<path d="M277.898 107.595C280.008 111.022 282.842 113.343 286.112 115.61C289.184 117.733 292.308 119.895 294.391 123.073C296.237 125.894 296.922 129.243 295.578 132.407C294.628 134.635 291.702 138.63 288.894 136.797C288.498 136.547 288.379 135.966 288.749 135.624C289.671 134.74 290.924 134.49 291.873 133.62C292.954 132.631 293.534 131.352 293.574 129.889C293.666 126.724 291.754 123.85 289.54 121.754C285.11 117.562 277.767 114.806 276.185 108.293C275.934 107.265 277.345 106.645 277.898 107.568V107.595Z" fill="black"/>
<path d="M219.534 119.302C221.762 117.127 224.768 116.019 227.55 114.78C228.842 114.2 230.134 113.593 231.268 112.736C232.428 111.853 233.219 110.666 234.181 109.598C234.669 109.058 235.631 109.48 235.605 110.192C235.526 112.684 233.351 114.556 231.439 115.861C229.079 117.469 226.324 118.3 223.845 119.697C221.894 120.805 219.692 122.558 219.389 124.945C219.007 127.832 221.182 129.81 222.909 131.761C223.858 132.829 222.579 134.833 221.274 133.883C219.033 132.235 217.121 129.493 216.726 126.711C216.33 123.903 217.543 121.253 219.534 119.328V119.302Z" fill="black"/>
<path d="M274.919 96.4672C275.037 95.5839 276.422 95.6762 276.619 96.4672C277.265 99.0776 278.755 101.635 281.194 102.941C283.778 104.338 287.021 103.956 289.447 102.413C291.886 100.857 293.376 97.9438 293.574 95.0829C293.798 91.8792 292.453 89.0051 290.568 86.4869C290.33 86.1837 290.779 85.7882 291.082 85.9728C296.197 89.071 297.146 96.5331 293.982 101.345C290.752 106.276 283.607 108.122 278.702 104.523C276.118 102.624 274.47 99.7237 274.919 96.454V96.4672Z" fill="black"/>
<path d="M6.22277 23.6653C7.71252 23.6653 9.21545 23.6653 10.7052 23.6653C60.1175 23.6653 109.504 23.5993 158.916 23.5466C205.863 23.4807 252.823 23.2961 299.77 23.072C301.497 23.072 303.211 23.072 304.938 23.0456C304.819 22.4787 304.687 21.9118 304.529 21.3449C304.49 21.1999 304.45 21.068 304.411 20.9362C303.171 16.6382 300.983 12.5775 297.582 9.61113C294.154 6.63155 289.935 4.81216 285.545 3.7838C281.049 2.75545 276.382 2.43904 271.781 2.28083C265.862 2.09625 259.929 1.87213 254.01 1.70073C242.052 1.33158 230.094 1.02835 218.124 0.764671C193.984 0.26368 169.845 0 145.706 0C121.672 0 97.6382 0.224128 73.6044 0.725119C61.6337 0.962431 49.6761 1.29203 37.7185 1.648C32.1946 1.81939 26.5519 1.68755 21.0807 2.33357C16.4137 2.88729 11.9576 4.443 9.24182 8.51686C6.85557 12.0765 6.5128 16.5986 6.34142 20.8175C6.34142 21.3053 6.30187 21.7799 6.28869 22.2678C6.28869 22.7424 6.24913 23.2038 6.23594 23.6653H6.22277Z" fill="#16B925"/>
<path d="M262.881 280.892C257.884 278.163 253.072 275.078 248.445 271.756C250.132 270.53 251.82 269.304 253.52 268.078C256.197 266.153 259.163 264.333 261.51 262C263.276 260.233 261.048 257.623 258.926 258.664C256.065 260.075 253.494 262.224 250.91 264.056C248.273 265.929 245.663 267.814 242.987 269.62C241.8 270.424 241.128 272.481 242.486 273.536C248.102 277.952 254.061 281.842 260.363 285.217C263.21 286.746 265.742 282.435 262.894 280.879L262.881 280.892Z" fill="white"/>
<path d="M280.916 256.884C280.652 254.907 278.517 253.733 276.908 255.223C275.867 256.186 275.458 257.623 274.957 258.928C274.456 260.207 274.021 261.512 273.56 262.804C272.676 265.296 271.819 267.801 270.989 270.306C269.288 275.421 267.772 280.589 266.322 285.77C265.267 289.304 270.857 290.846 271.846 287.3C273.283 282.211 274.825 277.161 276.381 272.112C277.132 269.686 277.91 267.26 278.701 264.847C279.136 263.542 279.571 262.25 280.006 260.958C280.428 259.679 281.074 258.269 280.903 256.911L280.916 256.884Z" fill="white"/>
<path d="M306.558 272.705C301.113 266.931 294.838 261.96 288.088 257.794C285.095 255.948 282.419 260.589 285.346 262.488C290.553 265.876 295.339 269.791 299.808 274.063C297.277 275.434 294.733 276.779 292.135 278.031C288.549 279.772 284.871 281.275 281.272 282.962C281.153 283.002 281.035 283.055 280.929 283.12C280.903 283.134 280.877 283.147 280.837 283.16C280.837 283.16 280.837 283.16 280.85 283.16C279.954 283.701 279.4 284.768 279.545 285.85C279.743 287.339 281.364 288.671 282.933 288.104C286.941 286.627 290.857 284.729 294.706 282.883C298.516 281.064 302.274 279.165 305.991 277.161C307.653 276.265 307.784 273.984 306.571 272.692L306.558 272.705Z" fill="white"/>
<path d="M285.2 46.5527C285.2 46.5527 285.2 46.5263 285.2 46.5131C243.87 47.2646 202.526 47.0932 161.208 46.1703C149.554 45.9066 137.9 45.4188 126.245 45.432C123.529 45.432 123.582 49.4268 126.245 49.6113C136.608 50.3628 147.009 50.587 157.398 50.8506C167.787 51.1143 178.162 51.3385 188.551 51.4835C209.118 51.7999 229.671 51.7603 250.237 51.5758C261.892 51.4703 273.559 51.2857 285.214 51.0484C288.365 50.9825 287.824 46.4867 285.214 46.5527H285.2Z" fill="#BFE7C2"/>
<path d="M239.326 60.6509C237.705 59.6094 236.057 59.794 234.211 59.8203C232.418 59.8335 230.612 59.8467 228.819 59.8599C225.22 59.8863 221.62 59.7808 218.021 59.7149C210.823 59.583 203.638 59.5039 196.44 59.3984C181.951 59.1875 167.462 58.8447 152.973 58.5151C148.952 58.4228 144.931 58.3174 140.923 58.2251C136.81 58.1328 132.644 57.79 128.557 58.2251C126.5 58.4492 125.591 61.7188 128.017 62.1803C131.537 62.8527 135.123 62.9318 138.695 63.1031C142.4 63.2877 146.091 63.4459 149.796 63.591C157.086 63.8942 164.39 64.1711 171.694 64.3424C186.077 64.6852 200.461 64.9489 214.857 64.9225C218.878 64.9225 222.899 64.8434 226.92 64.8303C229.03 64.8303 231.152 64.8566 233.262 64.8698C235.358 64.883 237.494 65.2258 239.339 64.026C240.605 63.2086 240.618 61.442 239.339 60.6246L239.326 60.6509Z" fill="#BFE7C2"/>
<path d="M99.496 205.047C99.5972 202.078 99.4516 199.206 99.5042 198.152C99.7114 193.671 99.8792 189.186 99.9813 184.695C100.171 176.48 100.012 168.327 99.844 160.12C99.7551 155.996 98.6605 155.953 94.8856 155.384C91.2278 154.839 87.5597 154.412 83.8846 154.063C76.7852 153.376 69.6736 152.978 62.5454 152.618C56.6695 152.315 50.781 152.157 44.8918 152.157C41.9412 152.15 39.0014 152.171 36.0571 152.244C33.0996 152.316 29.9492 152.172 27.0279 152.737C26.3552 152.863 25.9626 153.266 25.7482 153.75C25.6505 153.807 25.5539 153.852 25.4682 153.924C25.4563 153.909 25.4454 153.882 25.4334 153.868C23.771 155.019 24.2882 158.029 24.2357 159.837C24.1646 162.16 24.0947 164.47 24.063 166.797C23.9837 171.329 23.9832 175.869 23.9421 180.418C23.8651 189.609 23.9742 198.79 23.9103 207.982C23.8983 209.027 24.5578 209.958 25.6599 210.068C49.1719 212.392 72.8879 213.595 96.5129 213.269C98.7258 213.237 99.3422 209.07 99.4817 205.059L99.496 205.047ZM27.7996 206.338C27.9203 197.706 28.1723 189.086 28.2535 180.451C28.3026 175.81 28.3923 171.16 28.3877 166.527C28.3839 164.303 28.3659 162.092 28.3489 159.867C28.3433 158.874 28.48 157.615 28.3962 156.456C30.9046 156.676 33.5098 156.547 36.007 156.594C38.941 156.639 41.8882 156.685 44.8199 156.757C50.6953 156.914 56.5781 157.138 62.4551 157.428C73.5765 157.978 84.5964 159.234 95.6833 160.179C95.3031 168.298 95.5653 176.487 95.3308 184.605C95.1984 188.987 95.0267 193.366 94.7368 197.735C94.5892 200.025 94.4285 202.313 94.3072 204.605C94.232 206.068 93.8454 207.913 94.1894 209.426C72.0285 208.901 49.9164 207.97 27.8008 206.325L27.7996 206.338Z" fill="#BFE7C2"/>
<path d="M44.3127 143.423C43.1031 143.284 41.8343 143.381 40.6215 143.361C39.4347 143.355 38.2479 143.349 37.0743 143.343C34.6604 143.356 32.2359 143.277 29.8309 143.448C28.7869 143.525 27.8712 144.212 27.8406 145.333C27.8099 146.453 28.6852 147.242 29.7248 147.323C32.1329 147.521 34.5607 147.482 36.96 147.521C38.1461 147.553 39.3332 147.546 40.5069 147.552C41.72 147.559 42.9834 147.659 44.1998 147.548C45.3104 147.446 46.2923 146.748 46.3255 145.535C46.3586 144.323 45.4307 143.532 44.313 143.409L44.3127 143.423Z" fill="#BFE7C2"/>
<path d="M94.175 146.35C87.3813 145.739 80.5962 145.221 73.7931 144.795C70.4508 144.584 67.0954 144.374 63.7531 144.163C62.0816 144.065 60.4088 143.993 58.7235 143.907C57.104 143.824 55.184 143.422 53.7511 144.339C52.618 145.074 52.5764 146.405 53.6026 147.249C54.8314 148.262 56.6604 148.118 58.1857 148.236C59.8559 148.36 61.5253 148.498 63.21 148.598C66.6583 148.8 70.1204 148.99 73.5686 149.192C80.3737 149.579 87.1697 149.887 93.9835 150.102C96.422 150.174 96.5936 146.552 94.1757 146.337L94.175 146.35Z" fill="#BFE7C2"/>
<path d="M200.59 74.6521C188.845 74.4578 177.086 74.2631 165.34 74.1346C159.512 74.0781 153.697 74.0614 147.868 74.0575C141.947 74.0515 135.991 73.8865 130.076 74.1839C127.237 74.3288 127.088 78.4531 129.972 78.6389C135.884 79.014 141.834 78.9151 147.754 78.987C153.581 79.0568 159.395 79.113 165.223 79.13C176.973 79.153 188.737 79.0973 200.488 79.0412C203.31 79.0278 203.424 74.6917 200.59 74.6521Z" fill="#BFE7C2"/>
<path d="M152.23 93.6063C144.399 93.7909 136.555 93.9755 128.723 94.16C125.849 94.226 125.836 98.7085 128.723 98.6426C136.555 98.4712 144.399 98.2998 152.23 98.1284C155.13 98.0625 155.144 93.5536 152.23 93.6195V93.6063Z" fill="#BFE7C2"/>
<path d="M205.848 94.5292C198.597 94.3314 191.359 94.1073 184.108 93.9755C176.896 93.8436 169.566 93.3558 162.368 93.8304C159.573 94.015 159.639 97.8516 162.368 98.1284C169.553 98.8667 176.896 98.669 184.108 98.814C191.359 98.9458 198.597 98.9986 205.848 99.0777C208.774 99.104 208.774 94.6083 205.848 94.5292Z" fill="#BFE7C2"/>
<path d="M96.2648 166.834C90.9503 167.374 86.7795 170.873 83.0912 174.455C79.5766 177.866 75.5709 182.2 70.3513 182.563C67.436 182.758 64.6946 181.419 62.077 180.33C59.5359 179.274 56.9417 178.371 54.1756 178.222C48.6566 177.924 43.2875 179.995 38.8314 183.125C33.6286 186.772 28.9844 192.201 25.8814 197.713C25.3794 198.609 26.4459 199.88 27.3133 199.043C31.405 195.087 34.6434 190.447 39.1626 186.899C43.3555 183.6 48.6962 181.249 54.1226 181.698C59.7198 182.162 64.3027 186.348 70.0338 186.188C75.1014 186.05 79.3679 182.969 82.9412 179.643C87.018 175.857 91.0206 170.954 96.892 170.25C99.1124 169.982 98.4674 166.616 96.2636 166.847L96.2648 166.834Z" fill="#BFE7C2"/>
<path d="M56.7959 171.671C55.8397 168.385 53.2048 165.679 50.0957 164.309C43.2261 161.298 33.9206 165.552 30.4921 171.909C28.5489 175.51 28.3777 180.035 31.4372 183.029C32.1689 183.742 33.6072 183.034 33.0631 181.994C31.4067 178.844 32.0063 175.019 34.1255 172.28C36.3943 169.342 40.0269 167.304 43.711 166.793C47.0599 166.332 50.9961 167.325 53.1084 170.104C54.1298 171.438 54.5947 173.08 54.4618 174.749C54.3231 176.484 53.5646 177.741 52.4959 179.063C51.4867 180.312 53.3398 181.969 54.5408 180.95C57.1141 178.766 57.7025 174.768 56.7959 171.671Z" fill="#BFE7C2"/>
<path d="M16.2422 12.3138C17.0727 7.26432 24.7193 7.79168 24.9302 13.0916C25.0093 15.1615 23.4668 17.1919 21.4365 17.6533C18.5888 18.3125 16.1103 15.9921 16.1631 13.1312C16.1631 12.8411 16.1894 12.5775 16.229 12.3138H16.2422Z" fill="white"/>
<path d="M33.4865 10.8241C36.2815 5.55047 45.4969 9.70342 42.0955 15.4648C39.2214 20.3165 31.1003 17.0337 33.1965 11.4833C33.2888 11.2459 33.3811 11.035 33.4865 10.8241Z" fill="white"/>
<path d="M26.3672 112.568V44.322C26.3672 42.6701 26.3672 41.8442 26.6836 41.2111C26.9739 40.6299 27.4451 40.1587 28.0263 39.8684C28.6594 39.552 29.4853 39.552 31.1372 39.552H101.749C103.484 39.552 104.352 39.552 105.003 39.8904C105.599 40.2008 106.075 40.7027 106.352 41.3157C106.654 41.9839 106.607 42.8503 106.512 44.5831L102.77 112.829C102.684 114.398 102.641 115.183 102.313 115.781C102.011 116.33 101.545 116.771 100.98 117.042C100.365 117.338 99.579 117.338 98.0071 117.338H31.1372C29.4853 117.338 28.6594 117.338 28.0263 117.021C27.4451 116.731 26.9739 116.26 26.6836 115.678C26.3672 115.045 26.3672 114.219 26.3672 112.568Z" fill="#BFE7C2"/>
</g>
<defs>
<clipPath id="clip0_415_39">
<rect width="330" height="359" fill="white" transform="matrix(-1 0 0 1 330 0)"/>
</clipPath>
</defs>
</svg>
