<svg width="175" height="30" viewBox="0 0 175 30" fill="none" xmlns="http://www.w3.org/2000/svg">
<path d="M41.56 24V10.728C41.56 9.20801 41.992 8.08001 42.856 7.34401C43.72 6.60801 44.992 6.24001 46.672 6.24001H48.352V9.12001H46.504C46.072 9.12001 45.736 9.24001 45.496 9.48001C45.256 9.72001 45.136 10.056 45.136 10.488V24H41.56ZM40 13.92V11.112H48.544V13.92H40Z" fill="#191414"/>
<path d="M50.3892 24V10.848H53.4372V16.488H53.3652C53.3652 14.632 53.7572 13.2 54.5412 12.192C55.3412 11.184 56.4932 10.68 57.9972 10.68H58.5012V13.992H57.5412C56.4852 13.992 55.6692 14.28 55.0932 14.856C54.5172 15.416 54.2292 16.232 54.2292 17.304V24H50.3892Z" fill="#191414"/>
<path d="M66.4444 24.456C65.3244 24.456 64.3324 24.264 63.4684 23.88C62.6204 23.496 61.9084 22.984 61.3324 22.344C60.7724 21.688 60.3404 20.96 60.0364 20.16C59.7484 19.344 59.6044 18.512 59.6044 17.664V17.184C59.6044 16.304 59.7484 15.464 60.0364 14.664C60.3404 13.848 60.7724 13.12 61.3324 12.48C61.8924 11.84 62.5884 11.336 63.4204 10.968C64.2684 10.584 65.2284 10.392 66.3004 10.392C67.7084 10.392 68.8924 10.712 69.8524 11.352C70.8284 11.976 71.5724 12.8 72.0844 13.824C72.5964 14.832 72.8524 15.936 72.8524 17.136V18.432H61.2124V16.248H70.5244L69.2764 17.256C69.2764 16.472 69.1644 15.8 68.9404 15.24C68.7164 14.68 68.3804 14.256 67.9324 13.968C67.5004 13.664 66.9564 13.512 66.3004 13.512C65.6284 13.512 65.0604 13.664 64.5964 13.968C64.1324 14.272 63.7804 14.72 63.5404 15.312C63.3004 15.888 63.1804 16.6 63.1804 17.448C63.1804 18.232 63.2924 18.92 63.5164 19.512C63.7404 20.088 64.0924 20.536 64.5724 20.856C65.0524 21.176 65.6764 21.336 66.4444 21.336C67.1484 21.336 67.7244 21.2 68.1724 20.928C68.6204 20.656 68.9244 20.32 69.0844 19.92H72.6124C72.4204 20.8 72.0444 21.584 71.4844 22.272C70.9244 22.96 70.2204 23.496 69.3724 23.88C68.5244 24.264 67.5484 24.456 66.4444 24.456Z" fill="#191414"/>
<path d="M80.389 24.408C78.517 24.408 77.053 24.024 75.997 23.256C74.941 22.488 74.381 21.408 74.317 20.016H77.725C77.789 20.432 78.037 20.808 78.469 21.144C78.917 21.464 79.581 21.624 80.461 21.624C81.133 21.624 81.685 21.512 82.117 21.288C82.565 21.048 82.789 20.712 82.789 20.28C82.789 19.896 82.621 19.592 82.285 19.368C81.949 19.128 81.349 18.96 80.485 18.864L79.453 18.768C77.869 18.608 76.677 18.168 75.877 17.448C75.093 16.728 74.701 15.808 74.701 14.688C74.701 13.76 74.933 12.984 75.397 12.36C75.861 11.736 76.501 11.264 77.317 10.944C78.149 10.624 79.093 10.464 80.149 10.464C81.845 10.464 83.213 10.84 84.253 11.592C85.293 12.328 85.837 13.4 85.885 14.808H82.477C82.413 14.376 82.189 14.016 81.805 13.728C81.421 13.424 80.853 13.272 80.101 13.272C79.509 13.272 79.037 13.384 78.685 13.608C78.333 13.832 78.157 14.136 78.157 14.52C78.157 14.888 78.309 15.168 78.613 15.36C78.917 15.552 79.413 15.688 80.101 15.768L81.133 15.864C82.749 16.04 84.005 16.488 84.901 17.208C85.797 17.928 86.245 18.896 86.245 20.112C86.245 20.992 86.005 21.76 85.525 22.416C85.045 23.056 84.365 23.552 83.485 23.904C82.605 24.24 81.573 24.408 80.389 24.408Z" fill="#191414"/>
<path d="M94.6369 24.456C93.5009 24.456 92.5089 24.272 91.6609 23.904C90.8289 23.52 90.1329 23.008 89.5729 22.368C89.0129 21.728 88.5969 21.008 88.3249 20.208C88.0529 19.392 87.9169 18.552 87.9169 17.688V17.232C87.9169 16.336 88.0609 15.48 88.3489 14.664C88.6369 13.832 89.0609 13.096 89.6209 12.456C90.1809 11.816 90.8769 11.312 91.7089 10.944C92.5569 10.576 93.5249 10.392 94.6129 10.392C95.7969 10.392 96.8449 10.624 97.7569 11.088C98.6689 11.536 99.3969 12.168 99.9409 12.984C100.485 13.8 100.789 14.736 100.853 15.792H97.0849C97.0209 15.2 96.7809 14.704 96.3649 14.304C95.9649 13.888 95.3809 13.68 94.6129 13.68C93.9729 13.68 93.4369 13.84 93.0049 14.16C92.5889 14.48 92.2769 14.92 92.0689 15.48C91.8609 16.04 91.7569 16.704 91.7569 17.472C91.7569 18.176 91.8529 18.816 92.0449 19.392C92.2369 19.952 92.5409 20.392 92.9569 20.712C93.3889 21.016 93.9489 21.168 94.6369 21.168C95.1489 21.168 95.5809 21.08 95.9329 20.904C96.3009 20.712 96.5889 20.456 96.7969 20.136C97.0209 19.8 97.1569 19.416 97.2049 18.984H100.949C100.901 20.072 100.597 21.032 100.037 21.864C99.4769 22.68 98.7329 23.32 97.8049 23.784C96.8769 24.232 95.8209 24.456 94.6369 24.456Z" fill="#191414"/>
<path d="M109.813 24.456C108.661 24.456 107.637 24.28 106.741 23.928C105.845 23.56 105.085 23.064 104.461 22.44C103.853 21.816 103.389 21.104 103.069 20.304C102.749 19.488 102.589 18.632 102.589 17.736V17.184C102.589 16.272 102.749 15.408 103.069 14.592C103.405 13.76 103.885 13.032 104.509 12.408C105.149 11.784 105.917 11.296 106.813 10.944C107.709 10.576 108.709 10.392 109.813 10.392C110.949 10.392 111.957 10.576 112.837 10.944C113.733 11.296 114.493 11.784 115.117 12.408C115.741 13.032 116.221 13.76 116.557 14.592C116.893 15.408 117.061 16.272 117.061 17.184V17.736C117.061 18.632 116.901 19.488 116.581 20.304C116.261 21.104 115.789 21.816 115.165 22.44C114.557 23.064 113.805 23.56 112.909 23.928C112.013 24.28 110.981 24.456 109.813 24.456ZM109.813 21.216C110.565 21.216 111.189 21.056 111.685 20.736C112.181 20.416 112.557 19.968 112.813 19.392C113.085 18.816 113.221 18.176 113.221 17.472C113.221 16.72 113.085 16.064 112.813 15.504C112.541 14.928 112.149 14.472 111.637 14.136C111.141 13.8 110.533 13.632 109.813 13.632C109.109 13.632 108.501 13.8 107.989 14.136C107.477 14.472 107.085 14.928 106.813 15.504C106.557 16.064 106.429 16.72 106.429 17.472C106.429 18.176 106.557 18.816 106.813 19.392C107.069 19.968 107.453 20.416 107.965 20.736C108.477 21.056 109.093 21.216 109.813 21.216Z" fill="#191414"/>
<path d="M125.165 24.432C124.237 24.432 123.389 24.264 122.621 23.928C121.869 23.592 121.213 23.128 120.653 22.536C120.093 21.928 119.661 21.216 119.357 20.4C119.069 19.584 118.925 18.704 118.925 17.76V17.208C118.925 16.264 119.061 15.384 119.333 14.568C119.621 13.752 120.029 13.04 120.557 12.432C121.101 11.808 121.749 11.328 122.501 10.992C123.253 10.64 124.093 10.464 125.021 10.464C126.077 10.464 126.989 10.696 127.757 11.16C128.525 11.608 129.125 12.28 129.557 13.176C129.989 14.056 130.229 15.144 130.277 16.44L129.269 15.504V6.48001H133.133V24H130.085V18.552H130.613C130.565 19.8 130.301 20.864 129.821 21.744C129.357 22.624 128.725 23.296 127.925 23.76C127.125 24.208 126.205 24.432 125.165 24.432ZM126.125 21.216C126.717 21.216 127.253 21.088 127.733 20.832C128.229 20.56 128.621 20.168 128.909 19.656C129.213 19.144 129.365 18.528 129.365 17.808V16.92C129.365 16.216 129.213 15.624 128.909 15.144C128.605 14.664 128.205 14.296 127.709 14.04C127.213 13.784 126.677 13.656 126.101 13.656C125.461 13.656 124.885 13.824 124.373 14.16C123.877 14.48 123.485 14.928 123.197 15.504C122.909 16.064 122.765 16.72 122.765 17.472C122.765 18.24 122.909 18.904 123.197 19.464C123.485 20.024 123.885 20.456 124.397 20.76C124.909 21.064 125.485 21.216 126.125 21.216Z" fill="#191414"/>
<path d="M137.24 24V10.848H141.08V24H137.24ZM135.488 13.68V10.848H141.08V13.68H135.488ZM138.728 9.55201C138.008 9.55201 137.472 9.36801 137.12 9.00001C136.784 8.61601 136.616 8.13601 136.616 7.56001C136.616 6.96801 136.784 6.48801 137.12 6.12001C137.472 5.73601 138.008 5.54401 138.728 5.54401C139.448 5.54401 139.976 5.73601 140.312 6.12001C140.664 6.48801 140.84 6.96801 140.84 7.56001C140.84 8.13601 140.664 8.61601 140.312 9.00001C139.976 9.36801 139.448 9.55201 138.728 9.55201Z" fill="#191414"/>
<path d="M149.815 29.232C149.175 29.232 148.519 29.208 147.847 29.16C147.175 29.112 146.559 29.048 145.999 28.968V25.728C146.559 25.808 147.175 25.872 147.847 25.92C148.535 25.984 149.159 26.016 149.719 26.016C150.759 26.016 151.599 25.896 152.239 25.656C152.895 25.416 153.375 25.048 153.679 24.552C153.983 24.072 154.135 23.448 154.135 22.68V20.064L154.831 18.528C154.799 19.696 154.567 20.696 154.135 21.528C153.719 22.36 153.135 23 152.383 23.448C151.631 23.88 150.735 24.096 149.695 24.096C148.799 24.096 147.983 23.936 147.247 23.616C146.527 23.28 145.911 22.816 145.399 22.224C144.887 21.632 144.495 20.944 144.223 20.16C143.951 19.36 143.815 18.496 143.815 17.568V17.016C143.815 16.088 143.959 15.224 144.247 14.424C144.535 13.624 144.951 12.928 145.495 12.336C146.039 11.744 146.687 11.288 147.439 10.968C148.191 10.632 149.023 10.464 149.935 10.464C150.991 10.464 151.903 10.696 152.671 11.16C153.455 11.624 154.071 12.304 154.519 13.2C154.967 14.096 155.207 15.176 155.239 16.44L154.711 16.584V10.848H157.759V22.44C157.759 24.056 157.471 25.36 156.895 26.352C156.319 27.344 155.439 28.072 154.255 28.536C153.087 29 151.607 29.232 149.815 29.232ZM150.895 20.856C151.487 20.856 152.023 20.728 152.503 20.472C152.983 20.2 153.359 19.816 153.631 19.32C153.919 18.824 154.063 18.224 154.063 17.52V16.824C154.063 16.136 153.911 15.56 153.607 15.096C153.319 14.616 152.935 14.256 152.455 14.016C151.975 13.76 151.463 13.632 150.919 13.632C150.279 13.632 149.711 13.784 149.215 14.088C148.719 14.392 148.335 14.816 148.063 15.36C147.791 15.904 147.655 16.544 147.655 17.28C147.655 18.032 147.791 18.68 148.063 19.224C148.351 19.752 148.735 20.16 149.215 20.448C149.711 20.72 150.271 20.856 150.895 20.856Z" fill="#191414"/>
<path d="M167.493 24.456C166.341 24.456 165.317 24.28 164.421 23.928C163.525 23.56 162.765 23.064 162.141 22.44C161.533 21.816 161.068 21.104 160.748 20.304C160.428 19.488 160.269 18.632 160.269 17.736V17.184C160.269 16.272 160.428 15.408 160.748 14.592C161.084 13.76 161.564 13.032 162.188 12.408C162.828 11.784 163.597 11.296 164.493 10.944C165.389 10.576 166.389 10.392 167.493 10.392C168.629 10.392 169.636 10.576 170.516 10.944C171.412 11.296 172.172 11.784 172.796 12.408C173.42 13.032 173.9 13.76 174.236 14.592C174.572 15.408 174.74 16.272 174.74 17.184V17.736C174.74 18.632 174.58 19.488 174.26 20.304C173.94 21.104 173.468 21.816 172.844 22.44C172.236 23.064 171.485 23.56 170.589 23.928C169.693 24.28 168.661 24.456 167.493 24.456ZM167.493 21.216C168.245 21.216 168.869 21.056 169.365 20.736C169.861 20.416 170.237 19.968 170.493 19.392C170.765 18.816 170.9 18.176 170.9 17.472C170.9 16.72 170.765 16.064 170.493 15.504C170.221 14.928 169.828 14.472 169.316 14.136C168.82 13.8 168.213 13.632 167.493 13.632C166.789 13.632 166.181 13.8 165.669 14.136C165.157 14.472 164.765 14.928 164.493 15.504C164.237 16.064 164.108 16.72 164.108 17.472C164.108 18.176 164.237 18.816 164.493 19.392C164.749 19.968 165.133 20.416 165.645 20.736C166.157 21.056 166.773 21.216 167.493 21.216Z" fill="#191414"/>
<path d="M111.486 8.43732C110.458 9.55712 108.312 9.26004 108.312 9.26004C108.312 9.26004 107.834 7.14739 108.862 6.02759C109.89 4.90778 112.036 5.20486 112.036 5.20486C112.036 5.20486 112.514 7.31751 111.486 8.43732Z" fill="#191414"/>
<path fill-rule="evenodd" clip-rule="evenodd" d="M15 30C23.2843 30 30 23.2843 30 15C30 6.71573 23.2843 0 15 0C6.71573 0 0 6.71573 0 15C0 23.2843 6.71573 30 15 30ZM8.27547 22.8673C8.27547 22.8673 16.2278 23.9684 20.0393 19.8181C23.8508 15.6678 22.0781 7.83778 22.0781 7.83778C22.0781 7.83778 14.1258 6.73671 10.3143 10.887C6.50278 15.0373 8.27547 22.8673 8.27547 22.8673Z" fill="#16B925"/>
</svg>
