<svg width="136" height="28" viewBox="0 0 136 28" fill="none" xmlns="http://www.w3.org/2000/svg">
<path d="M2.03998 21.9999V8.72795C2.03998 7.20795 2.47198 6.07995 3.33598 5.34395C4.19998 4.60795 5.47198 4.23995 7.15198 4.23995H8.83198V7.11995H6.98398C6.55198 7.11995 6.21598 7.23995 5.97598 7.47995C5.73598 7.71995 5.61598 8.05595 5.61598 8.48795V21.9999H2.03998ZM0.47998 11.9199V9.11195H9.02398V11.9199H0.47998Z" fill="black"/>
<path d="M10.8692 21.9999V8.84795H13.9172V14.4879H13.8452C13.8452 12.6319 14.2372 11.1999 15.0212 10.1919C15.8212 9.18395 16.9732 8.67995 18.4772 8.67995H18.9812V11.9919H18.0212C16.9652 11.9919 16.1492 12.2799 15.5732 12.8559C14.9972 13.4159 14.7092 14.2319 14.7092 15.3039V21.9999H10.8692Z" fill="black"/>
<path d="M26.9244 22.4559C25.8044 22.4559 24.8124 22.2639 23.9484 21.8799C23.1004 21.4959 22.3884 20.9839 21.8124 20.3439C21.2524 19.6879 20.8204 18.9599 20.5164 18.1599C20.2284 17.3439 20.0844 16.5119 20.0844 15.6639V15.1839C20.0844 14.3039 20.2284 13.4639 20.5164 12.6639C20.8204 11.8479 21.2524 11.1199 21.8124 10.4799C22.3724 9.83995 23.0684 9.33595 23.9004 8.96795C24.7484 8.58395 25.7084 8.39195 26.7804 8.39195C28.1884 8.39195 29.3724 8.71195 30.3324 9.35195C31.3084 9.97595 32.0524 10.7999 32.5644 11.8239C33.0764 12.8319 33.3324 13.9359 33.3324 15.1359V16.4319H21.6924V14.2479H31.0044L29.7564 15.2559C29.7564 14.4719 29.6444 13.7999 29.4204 13.2399C29.1964 12.6799 28.8604 12.2559 28.4124 11.9679C27.9804 11.6639 27.4364 11.5119 26.7804 11.5119C26.1084 11.5119 25.5404 11.6639 25.0764 11.9679C24.6124 12.2719 24.2604 12.7199 24.0204 13.3119C23.7804 13.8879 23.6604 14.5999 23.6604 15.4479C23.6604 16.2319 23.7724 16.9199 23.9964 17.5119C24.2204 18.0879 24.5724 18.5359 25.0524 18.8559C25.5324 19.1759 26.1564 19.3359 26.9244 19.3359C27.6284 19.3359 28.2044 19.1999 28.6524 18.9279C29.1004 18.6559 29.4044 18.3199 29.5644 17.9199H33.0924C32.9004 18.7999 32.5244 19.5839 31.9644 20.2719C31.4044 20.9599 30.7004 21.4959 29.8524 21.8799C29.0044 22.2639 28.0284 22.4559 26.9244 22.4559Z" fill="black"/>
<path d="M40.869 22.4079C38.997 22.4079 37.533 22.0239 36.477 21.2559C35.421 20.4879 34.861 19.4079 34.797 18.0159H38.205C38.269 18.4319 38.517 18.8079 38.949 19.1439C39.397 19.4639 40.061 19.6239 40.941 19.6239C41.613 19.6239 42.165 19.5119 42.597 19.2879C43.045 19.0479 43.269 18.7119 43.269 18.2799C43.269 17.8959 43.101 17.5919 42.765 17.3679C42.429 17.1279 41.829 16.9599 40.965 16.8639L39.933 16.7679C38.349 16.6079 37.157 16.1679 36.357 15.4479C35.573 14.7279 35.181 13.8079 35.181 12.6879C35.181 11.7599 35.413 10.9839 35.877 10.3599C36.341 9.73595 36.981 9.26395 37.797 8.94395C38.629 8.62395 39.573 8.46395 40.629 8.46395C42.325 8.46395 43.693 8.83995 44.733 9.59195C45.773 10.3279 46.317 11.3999 46.365 12.8079H42.957C42.893 12.3759 42.669 12.0159 42.285 11.7279C41.901 11.4239 41.333 11.2719 40.581 11.2719C39.989 11.2719 39.517 11.3839 39.165 11.6079C38.813 11.8319 38.637 12.1359 38.637 12.5199C38.637 12.8879 38.789 13.1679 39.093 13.3599C39.397 13.5519 39.893 13.6879 40.581 13.7679L41.613 13.8639C43.229 14.0399 44.485 14.4879 45.381 15.2079C46.277 15.9279 46.725 16.8959 46.725 18.1119C46.725 18.9919 46.485 19.7599 46.005 20.4159C45.525 21.0559 44.845 21.5519 43.965 21.9039C43.085 22.2399 42.053 22.4079 40.869 22.4079Z" fill="black"/>
<path d="M55.1169 22.4559C53.9809 22.4559 52.9889 22.2719 52.1409 21.9039C51.3089 21.5199 50.6129 21.0079 50.0529 20.3679C49.4929 19.7279 49.0769 19.0079 48.8049 18.2079C48.5329 17.3919 48.3969 16.5519 48.3969 15.6879V15.2319C48.3969 14.3359 48.5409 13.4799 48.8289 12.6639C49.1169 11.8319 49.5409 11.0959 50.1009 10.4559C50.6609 9.81595 51.3569 9.31195 52.1889 8.94395C53.0369 8.57595 54.0049 8.39195 55.0929 8.39195C56.2769 8.39195 57.3249 8.62395 58.2369 9.08795C59.1489 9.53595 59.8769 10.1679 60.4209 10.9839C60.9649 11.7999 61.2689 12.7359 61.3329 13.7919H57.5649C57.5009 13.1999 57.2609 12.7039 56.8449 12.3039C56.4449 11.8879 55.8609 11.6799 55.0929 11.6799C54.4529 11.6799 53.9169 11.8399 53.4849 12.1599C53.0689 12.4799 52.7569 12.9199 52.5489 13.4799C52.3409 14.0399 52.2369 14.7039 52.2369 15.4719C52.2369 16.1759 52.3329 16.8159 52.5249 17.3919C52.7169 17.9519 53.0209 18.3919 53.4369 18.7119C53.8689 19.0159 54.4289 19.1679 55.1169 19.1679C55.6289 19.1679 56.0609 19.0799 56.4129 18.9039C56.7809 18.7119 57.0689 18.4559 57.2769 18.1359C57.5009 17.7999 57.6369 17.4159 57.6849 16.9839H61.4289C61.3809 18.0719 61.0769 19.0319 60.5169 19.8639C59.9569 20.6799 59.2129 21.3199 58.2849 21.7839C57.3569 22.2319 56.3009 22.4559 55.1169 22.4559Z" fill="black"/>
<path d="M70.2928 22.4559C69.1408 22.4559 68.1168 22.2799 67.2208 21.9279C66.3248 21.5599 65.5648 21.0639 64.9408 20.4399C64.3328 19.8159 63.8688 19.1039 63.5488 18.3039C63.2288 17.4879 63.0688 16.6319 63.0688 15.7359V15.1839C63.0688 14.2719 63.2288 13.4079 63.5488 12.5919C63.8848 11.7599 64.3648 11.0319 64.9888 10.4079C65.6288 9.78395 66.3968 9.29595 67.2928 8.94395C68.1888 8.57595 69.1888 8.39195 70.2928 8.39195C71.4288 8.39195 72.4368 8.57595 73.3168 8.94395C74.2128 9.29595 74.9728 9.78395 75.5968 10.4079C76.2208 11.0319 76.7008 11.7599 77.0368 12.5919C77.3728 13.4079 77.5408 14.2719 77.5408 15.1839V15.7359C77.5408 16.6319 77.3808 17.4879 77.0608 18.3039C76.7408 19.1039 76.2688 19.8159 75.6448 20.4399C75.0368 21.0639 74.2848 21.5599 73.3888 21.9279C72.4928 22.2799 71.4608 22.4559 70.2928 22.4559ZM70.2928 19.2159C71.0448 19.2159 71.6688 19.0559 72.1648 18.7359C72.6608 18.4159 73.0368 17.9679 73.2928 17.3919C73.5648 16.8159 73.7008 16.1759 73.7008 15.4719C73.7008 14.7199 73.5648 14.0639 73.2928 13.5039C73.0208 12.9279 72.6288 12.4719 72.1168 12.1359C71.6208 11.7999 71.0128 11.6319 70.2928 11.6319C69.5888 11.6319 68.9808 11.7999 68.4688 12.1359C67.9568 12.4719 67.5648 12.9279 67.2928 13.5039C67.0368 14.0639 66.9088 14.7199 66.9088 15.4719C66.9088 16.1759 67.0368 16.8159 67.2928 17.3919C67.5488 17.9679 67.9328 18.4159 68.4448 18.7359C68.9568 19.0559 69.5728 19.2159 70.2928 19.2159Z" fill="black"/>
<path d="M85.6447 22.4319C84.7167 22.4319 83.8687 22.2639 83.1007 21.9279C82.3487 21.5919 81.6927 21.1279 81.1327 20.5359C80.5727 19.9279 80.1407 19.2159 79.8367 18.3999C79.5487 17.5839 79.4047 16.7039 79.4047 15.7599V15.2079C79.4047 14.2639 79.5407 13.3839 79.8127 12.5679C80.1007 11.7519 80.5087 11.0399 81.0367 10.4319C81.5807 9.80795 82.2287 9.32795 82.9807 8.99195C83.7327 8.63995 84.5727 8.46395 85.5007 8.46395C86.5567 8.46395 87.4687 8.69595 88.2367 9.15995C89.0047 9.60795 89.6047 10.2799 90.0367 11.1759C90.4687 12.0559 90.7087 13.1439 90.7567 14.4399L89.7487 13.5039V4.47995H93.6127V21.9999H90.5647V16.5519H91.0927C91.0447 17.7999 90.7807 18.8639 90.3007 19.7439C89.8367 20.6239 89.2047 21.2959 88.4047 21.7599C87.6047 22.2079 86.6847 22.4319 85.6447 22.4319ZM86.6047 19.2159C87.1967 19.2159 87.7327 19.0879 88.2127 18.8319C88.7087 18.5599 89.1007 18.1679 89.3887 17.6559C89.6927 17.1439 89.8447 16.5279 89.8447 15.8079V14.9199C89.8447 14.2159 89.6927 13.6239 89.3887 13.1439C89.0847 12.6639 88.6847 12.2959 88.1887 12.0399C87.6927 11.7839 87.1567 11.6559 86.5807 11.6559C85.9407 11.6559 85.3647 11.8239 84.8527 12.1599C84.3567 12.4799 83.9647 12.9279 83.6767 13.5039C83.3887 14.0639 83.2447 14.7199 83.2447 15.4719C83.2447 16.2399 83.3887 16.9039 83.6767 17.4639C83.9647 18.0239 84.3647 18.4559 84.8767 18.7599C85.3887 19.0639 85.9647 19.2159 86.6047 19.2159Z" fill="black"/>
<path d="M97.7197 21.9999V8.84795H101.56V21.9999H97.7197ZM95.9677 11.6799V8.84795H101.56V11.6799H95.9677ZM99.2077 7.55195C98.4877 7.55195 97.9517 7.36795 97.5997 6.99995C97.2637 6.61595 97.0957 6.13595 97.0957 5.55995C97.0957 4.96795 97.2637 4.48795 97.5997 4.11995C97.9517 3.73595 98.4877 3.54395 99.2077 3.54395C99.9277 3.54395 100.456 3.73595 100.792 4.11995C101.144 4.48795 101.32 4.96795 101.32 5.55995C101.32 6.13595 101.144 6.61595 100.792 6.99995C100.456 7.36795 99.9277 7.55195 99.2077 7.55195Z" fill="black"/>
<path d="M110.295 27.2319C109.655 27.2319 108.999 27.2079 108.327 27.1599C107.655 27.1119 107.039 27.0479 106.479 26.9679V23.7279C107.039 23.8079 107.655 23.8719 108.327 23.9199C109.015 23.9839 109.639 24.0159 110.199 24.0159C111.239 24.0159 112.079 23.8959 112.719 23.6559C113.375 23.4159 113.855 23.0479 114.159 22.5519C114.463 22.0719 114.615 21.4479 114.615 20.6799V18.0639L115.311 16.5279C115.279 17.6959 115.047 18.6959 114.615 19.5279C114.199 20.3599 113.615 20.9999 112.863 21.4479C112.111 21.8799 111.215 22.0959 110.175 22.0959C109.279 22.0959 108.463 21.9359 107.727 21.6159C107.007 21.2799 106.391 20.8159 105.879 20.2239C105.367 19.6319 104.975 18.9439 104.703 18.1599C104.431 17.3599 104.295 16.4959 104.295 15.5679V15.0159C104.295 14.0879 104.439 13.2239 104.727 12.4239C105.015 11.6239 105.431 10.9279 105.975 10.3359C106.519 9.74395 107.167 9.28795 107.919 8.96795C108.671 8.63195 109.503 8.46395 110.415 8.46395C111.471 8.46395 112.383 8.69595 113.151 9.15995C113.935 9.62395 114.551 10.3039 114.999 11.1999C115.447 12.0959 115.687 13.1759 115.719 14.4399L115.191 14.5839V8.84795H118.239V20.4399C118.239 22.0559 117.951 23.3599 117.375 24.3519C116.799 25.3439 115.919 26.0719 114.735 26.5359C113.567 26.9999 112.087 27.2319 110.295 27.2319ZM111.375 18.8559C111.967 18.8559 112.503 18.7279 112.983 18.4719C113.463 18.1999 113.839 17.8159 114.111 17.3199C114.399 16.8239 114.543 16.2239 114.543 15.5199V14.8239C114.543 14.1359 114.391 13.5599 114.087 13.0959C113.799 12.6159 113.415 12.2559 112.935 12.0159C112.455 11.7599 111.943 11.6319 111.399 11.6319C110.759 11.6319 110.191 11.7839 109.695 12.0879C109.199 12.3919 108.815 12.8159 108.543 13.3599C108.271 13.9039 108.135 14.5439 108.135 15.2799C108.135 16.0319 108.271 16.6799 108.543 17.2239C108.831 17.7519 109.215 18.1599 109.695 18.4479C110.191 18.7199 110.751 18.8559 111.375 18.8559Z" fill="black"/>
<path d="M127.972 22.4559C126.82 22.4559 125.796 22.2799 124.9 21.9279C124.004 21.5599 123.244 21.0639 122.62 20.4399C122.012 19.8159 121.548 19.1039 121.228 18.3039C120.908 17.4879 120.748 16.6319 120.748 15.7359V15.1839C120.748 14.2719 120.908 13.4079 121.228 12.5919C121.564 11.7599 122.044 11.0319 122.668 10.4079C123.308 9.78395 124.076 9.29595 124.972 8.94395C125.868 8.57595 126.868 8.39195 127.972 8.39195C129.108 8.39195 130.116 8.57595 130.996 8.94395C131.892 9.29595 132.652 9.78395 133.276 10.4079C133.9 11.0319 134.38 11.7599 134.716 12.5919C135.052 13.4079 135.22 14.2719 135.22 15.1839V15.7359C135.22 16.6319 135.06 17.4879 134.74 18.3039C134.42 19.1039 133.948 19.8159 133.324 20.4399C132.716 21.0639 131.964 21.5599 131.068 21.9279C130.172 22.2799 129.14 22.4559 127.972 22.4559ZM127.972 19.2159C128.724 19.2159 129.348 19.0559 129.844 18.7359C130.34 18.4159 130.716 17.9679 130.972 17.3919C131.244 16.8159 131.38 16.1759 131.38 15.4719C131.38 14.7199 131.244 14.0639 130.972 13.5039C130.7 12.9279 130.308 12.4719 129.796 12.1359C129.3 11.7999 128.692 11.6319 127.972 11.6319C127.268 11.6319 126.66 11.7999 126.148 12.1359C125.636 12.4719 125.244 12.9279 124.972 13.5039C124.716 14.0639 124.588 14.7199 124.588 15.4719C124.588 16.1759 124.716 16.8159 124.972 17.3919C125.228 17.9679 125.612 18.4159 126.124 18.7359C126.636 19.0559 127.252 19.2159 127.972 19.2159Z" fill="black"/>
<path d="M73.2341 6.16667C71.8049 7.7229 68.823 7.31003 68.823 7.31003C68.823 7.31003 68.1583 4.37402 69.5875 2.8178C71.0167 1.26157 73.9986 1.67444 73.9986 1.67444C73.9986 1.67444 74.6633 4.61044 73.2341 6.16667Z" fill="#16B925"/>
</svg>
