<svg width="35" height="35" viewBox="0 0 35 35" fill="none" xmlns="http://www.w3.org/2000/svg">
<path d="M33.8505 33.8995C33.2632 34.4868 32.3174 34.5071 31.7054 33.9455L20.65 23.8C19.65 24.6667 18.484 25.3417 17.1521 25.825C15.8201 26.3083 14.4027 26.55 12.9 26.55C9.2946 26.55 6.24325 25.3 3.74595 22.8C1.24865 20.3 0 17.2833 0 13.75C0 10.2167 1.25 7.20001 3.75 4.70001C6.25 2.20001 9.275 0.950012 12.825 0.950012C16.375 0.950012 19.3917 2.20001 21.875 4.70001C24.3583 7.20001 25.6 10.2192 25.6 13.7575C25.6 15.1858 25.3667 16.5667 24.9 17.9C24.4333 19.2333 23.7333 20.4833 22.8 21.65L33.7975 31.656C34.4523 32.2517 34.4764 33.2736 33.8505 33.8995V33.8995ZM12.85 23.55C15.5583 23.55 17.8604 22.5917 19.7563 20.675C21.6521 18.7583 22.6 16.45 22.6 13.75C22.6 11.05 21.6521 8.74168 19.7563 6.82501C17.8604 4.90835 15.5583 3.95001 12.85 3.95001C10.1139 3.95001 7.7882 4.90835 5.8729 6.82501C3.95763 8.74168 3 11.05 3 13.75C3 16.45 3.95763 18.7583 5.8729 20.675C7.7882 22.5917 10.1139 23.55 12.85 23.55Z" fill="#16B925"/>
</svg>
